<svg xmlns="http://www.w3.org/2000/svg" viewBox="0 0 3387.58 2020.88"><defs><style>.cls-1{fill:#f4f4f4;}.cls-2{fill:#ff7c94;}.cls-3{opacity:0.26;}</style></defs><g id="Layer_2" data-name="Layer 2"><g id="Layer_1-2" data-name="Layer 1"><path class="cls-1" d="M2727.66,1079.94c-25.69,1.28-47.61,2.54-69.54,3.43q-93.87,3.81-187.73,7.36c-48.6,1.85-97.21,3.45-145.81,5.34-51.93,2-103.85,4.29-155.77,6.36-46.6,1.85-93.21,3.55-139.81,5.37q-83.88,3.27-167.76,6.61l-129.81,5.07q-92.86,3.64-185.74,7.3-115.83,4.48-231.68,8.9-97.86,3.79-195.71,7.74-92.88,3.66-185.74,7.27c-48.6,1.85-97.21,3.52-145.81,5.37-20,.75-39.93,1.89-59.9,2.59-6.51.23-13.22,2-20.31-1.47,1.78-8.34,3.93-16.66,5.24-25.11s2-17.2,2.6-25.83c.6-8.32-.69-16.8,0-25.18,7.75.12,11.56,4.38,16.31,6.44,19.68,8.49,39.8,10.53,60.48,4.34,19.45-5.81,29.65-20.7,27.9-40.69-1.27-14.55-9-24.71-21.94-31.08-9.1-4.49-19.11-5.56-28.86-7.66a114.16,114.16,0,0,1-17-5.23c-1.28-.49-2.07-3.18-2.33-5-.11-.82,1.47-2.16,2.56-2.82,6.15-3.71,12.89-3.34,19.36-1.61,7.67,2.05,15.12,5,23,7.61,3.41-.11,5.65-2.59,7.45-5.43,3.53-5.58,6.9-11.26,10.78-17.63-2.67-2.64-4.59-5.37-7.19-7-21.21-13.25-43.86-15.11-67.1-6.79-20,7.15-29.29,26.56-23.67,46.76a33.41,33.41,0,0,0,17,21.21,71.49,71.49,0,0,0,24.62,7.77c7.9,1.08,15.75,2.65,23.52,4.44,1.51.35,2.87,2.57,3.7,4.23.93,1.84-1.34,5.52-3.42,6.46a30.56,30.56,0,0,1-17.55,2.14c-9.39-1.39-17.81-5.27-26.28-9.21-4.22-2-7.61-.9-10.5,2.87s-5.35,7.56-8.28,11.13c-.61.73-2.43.47-3.21.59-7-40-14.09-79.88-21.32-120.85,2.81-1.17,5.61-3.07,8.6-3.45,29-3.74,58.09-7.75,87.23-10.68,59.08-5.93,118.5-3.9,177.73-6.51,9.32-.41,18.64-.66,28-1.06a13.68,13.68,0,0,0,10.26-5.36c4.9-5.88,4.58-13.33-1.85-17.27a113.2,113.2,0,0,0-19.72-9.31c-5.43-2-11.25-3-18.13-7.55,8.79-.38,15.3-.73,21.82-.93q108.88-3.3,217.76-6.56,19-.57,38-1,107.89-3,215.78-5.94c67.27-1.95,134.52-4.17,201.78-6.16q138.86-4.12,277.71-8.09,116.88-3.43,233.75-7c22-.64,44-.89,65.95-1.57,8.79-.27,17,.87,25.23,4.51,30.42,13.54,61,26.65,91.52,40,2.93,1.28,5.67,3,10.07,5.38-2.91,1.49-4.3,2.75-5.76,2.86-11.3.85-22.61,1.38-33.9,2.22a76.19,76.19,0,0,0-9,1.68c-1,1.93-2.23,3.1-2.19,4.23q1.93,55.9,4.19,111.8c.1,2.49,1.5,4.92,2.41,7.76,2.88.53,5.44,1.46,8,1.4,17.32-.47,34.64-.87,51.93-1.89a61,61,0,0,0,17.48-3.75c21.9-8.16,29.65-36.11,15.33-54.71-2.77-3.59-6.28-6.6-9.29-9.71,9.38-16.71,9.38-16.71,10.12-38.46a66.14,66.14,0,0,1,7.58,2.2C2467.75,943.24,2693.68,1058.37,2727.66,1079.94Zm-1719.15-57c1-39.56-32.79-66.53-64.88-67-29.41-.42-66,21.38-66.71,65.28-.71,43.49,35.67,66.59,65,67C976,1088.61,1008.79,1060.24,1008.51,1022.94Zm391.78-82.73c-7.81,13.91-37.14,87.8-47.28,118.58-.79,2.41-.75,5.09-1.09,7.61,13.88,2.87,18.75,2.82,36.72-.46a75.48,75.48,0,0,0,4.46-7.91c2.69-6.23,7.25-9.18,14-9.19,10,0,19.93-.28,29.9-.29,1.22,0,2.45.88,4.37,1.63l9.62,13.31c20.39,1.74,24.29,1.46,35.89-2.55-.09-1.83.3-3.94-.36-5.65-6.42-16.82-50-105.16-56.52-114.84a48.73,48.73,0,0,0-7.44-1C1415.27,939.55,1408,939.93,1400.29,940.21Zm494.18,58.24c-4.43,4.61-7.84,8.7-11.79,12.16a31.36,31.36,0,0,1-22.1,7.66c-13.06-.37-25.83-10.95-29.18-23.5-3.81-14.29,1.27-29,12.8-37.16,11.13-7.84,25.76-7.64,37.21.84,4.21,3.11,8,6.82,11.58,10,16.91-4.32,19.08-5.36,28.75-13.74-.71-1.7-1.15-3.69-2.23-5.23-17-24.35-40.78-33.93-69.39-28.94-49.31,8.61-68.78,60.41-46.48,97.73,13.44,22.47,34.27,33.33,60,32.6,26.46-.74,47-12.73,59.36-37,.54-1.07.23-2.58.37-4.57C1915.55,1003.19,1906,1001,1894.47,998.45ZM1194,985.82c.1-1.84.41-2.66.13-3.15-16.92-30.46-52.1-40.23-80.8-30.49-23.91,8.11-39.66,24.57-44.74,49.29s2.3,46.31,21.71,62.77c18.63,15.79,40.32,19.49,63.71,13.41,18.4-4.78,31.73-16.2,41-32.56,2.27-4,.94-7.8-3.61-9.53-8-3-15.6-7.4-23.75-7-4.5,4.27-8.13,8.16-12.23,11.49-8.18,6.65-17.59,9.42-28,6.9-12.36-3-22.42-14.21-24.22-26.47-2.17-14.79,4.5-29,17-35.36s24.5-4.68,35.42,4c3.6,2.86,6.8,6.22,10.52,9.66C1176.38,995.33,1186.38,992.39,1194,985.82ZM2130.88,912c-.57,3-1.53,5.58-1.46,8.1.61,21.25,1.24,42.5,2.28,63.73a77.93,77.93,0,0,0,3.1,17.57c4.49,15.75,14.65,26.79,30.06,32.16,16.25,5.66,32.71,5.25,48.59-1.71,13.49-5.92,22.31-16.19,26.74-30.39a62.77,62.77,0,0,0,2.63-21.62q-1-23.89-2.22-47.78c-.33-6.62-.72-13.26-1.54-19.83-.2-1.62-2-4.14-3.35-4.33-9.75-1.43-19.56-2.28-29.71,2.65,0,4.78-.11,9.37,0,14,.44,15.94,1,31.87,1.42,47.81.13,4.64.55,9.37-.11,13.92a27.15,27.15,0,0,1-3.95,11c-4.56,6.76-11.65,8.29-19.38,7.35-8.12-1-13.36-5.82-15.85-13.27-1.24-3.69-1.27-7.84-1.49-11.8-.95-17.25-2-34.49-2.59-51.75-.62-19.2-1.27-19.52-21.23-17.86C2139,910.2,2135.13,911.21,2130.88,912Zm-590.61,23.95c-.81,2.9-1.51,4.18-1.47,5.44q2,55.93,4.24,111.86c.18,4.61,3.14,7.6,7.55,7.47,26-.74,52-1.64,77.92-2.53,1.31-.05,2.91-.09,3.85-.81,2-1.52,5.13-3.45,5.18-5.29a153.38,153.38,0,0,0-1.25-21.82c-.17-1.4-2.66-3.38-4.29-3.61a72.74,72.74,0,0,0-11.91-.22c-12,.31-24,.82-36,1a7.43,7.43,0,0,1-8-7.24c-.44-5.3-.56-10.64-.77-16-.72-18-1.37-36-2.17-53.94a75.39,75.39,0,0,0-1.33-11.9,6,6,0,0,0-5.46-5C1557.84,932.85,1549.19,932.42,1540.27,935.92Zm479.54,71.24c-1.81-10.53-1.35-20.51-2-30.37s-1-19.95-1.79-29.91c-.79-9.79.82-19.86-2.6-29.91-10.32-2.4-20-1.46-29-.09-4.83,4.26-4,9.07-3.75,13.66.81,19.3,1.72,38.58,2.5,57.88.52,12.64.78,25.29,1.35,37.93.24,5.26,0,10.73,3.39,15.33,14.6,2.28,45.71,1.59,85.43-2,1.83-.17,3.55-1.49,6.25-2.69a89.55,89.55,0,0,0-.7-23.49c-.53-2.88-2.44-4.91-5.39-4.93-10-.07-19.94.23-29.91.19C2036.36,1008.69,2029,1010.56,2019.81,1007.16Zm-758.48,63.93c9.78,2.19,18.42,1.41,26.93.13,2-.3,4.25-3,5.16-5.13,1-2.29.74-5.21.64-7.84q-1.86-47.93-3.88-95.83c-.17-4-.35-8.07-1.5-11.82-.66-2.15-3.15-5.13-5-5.29-9.18-.79-18.54-1.75-27.24,2.92-.45,2.19-1.25,4.14-1.18,6q2,54.9,4.24,109.8C1259.56,1066,1260.45,1067.83,1261.33,1071.09Z"/><path class="cls-1" d="M461.25,964.08c2.41-1.57,3.43-2.77,4.55-2.87q72.49-6.74,145-13.19c5.88-.52,11.84-.08,18.24-.08,4.12,6.17,5.17,12.65,6.37,19.08,4.63,24.84,9,49.71,14,74.49a1033.1,1033.1,0,0,0,26.23,104.38c1.16,3.75,2,7.59,3.2,11.86-6.64,3.94-13.37,2.47-19.71,3-6,.5-12,.76-17.93.89-6.55.15-13.11,0-20,0-4.24-6.71-3.83-14.18-4.62-21.26-1.84-16.52-3.2-33.09-5.09-49.6a79.59,79.59,0,0,0-3.68-17.49,30.54,30.54,0,0,0-7.3-11.58c-9.46-9.07-20.23-6.59-25.62,5.29-4.21,9.28-4.67,19.33-6.18,29.16-.79,5.13-1,10.35-1.5,15.65-2-.48-3.74-.36-4.36-1.12C550.67,1095.84,468.12,976.52,461.25,964.08Z"/><path class="cls-1" d="M2396.77,844.32a62.08,62.08,0,0,1,7.63-1.23c66.56-2.17,133.12-4.28,201.65-6.47,2.37,2.94,5.21,6.58,8.16,10.13q89.37,107.64,178.71,215.3c3.27,3.94,8,7.21,8.12,14-16.93,3.78-34.18,2.82-51.23,3.5-2-4.73,2-5.92,3.8-8.11,4.55-5.6,5.73-11.94,4.38-18.78a69.3,69.3,0,0,0-9.89-23.85,127.84,127.84,0,0,0-26.54-29.67c-14.37-12-30.08-22-46.22-31.39-31.15-18.08-63.6-33.53-96.47-48.16-55.38-24.65-111.93-46.35-168.78-67.31-4.32-1.59-8.51-3.55-12.71-5.46C2397,846.65,2397.06,845.58,2396.77,844.32Z"/><path class="cls-1" d="M2352.52,980.37c6.51-2.47,13.54-2.86,20.7-2.06a14.15,14.15,0,0,1,3.7,1.24c2.52,1,4.94,5.17,4.76,8-.17,2.67-3.23,6.81-5.84,7.18a113.33,113.33,0,0,1-13.63,1.23C2351.34,996.18,2350.3,994.49,2352.52,980.37Z"/><path class="cls-1" d="M2361,948.94c-2.56-.17-4.53-.23-6.48-.43-3.07-.3-5.68-3.46-5.75-6.86-.09-3.71,1.92-7.1,4.76-7.73,5.8-1.3,11.62-1.95,17.41.11,2.48.88,4.83,5.23,4.17,8.16-.61,2.7-2.23,4.84-5,5.44C2366.9,948.33,2363.62,948.57,2361,948.94Z"/><path class="cls-1" d="M911.65,1022.29c-.07-17.43,14.31-32.78,31-32.42,15.95.34,30.49,12.09,31.36,32.3.73,16.88-14.9,32.71-31.13,32.71S911.72,1039.38,911.65,1022.29Z"/><path class="cls-1" d="M1427.68,1015.89c-7.41,3.89-12.9,4.35-19.24,1,1.3-7.43,2.43-14.9,8.85-21.08,1.73,2.43,3.49,4.35,4.6,6.6C1423.86,1006.39,1425.42,1010.55,1427.68,1015.89Z"/><path class="cls-2" d="M1248.8,1212.22c4.9-.94,8.18-1.29,11.29-2.21,23-6.86,43.52.17,62.84,11.77,4.77,2.86,8.73,8.34,11.19,13.51,6.7,14.1,9.75,29.2,6.3,44.72-4.76,21.43-10.14,42.73-15.49,64-1.94,7.74-4.67,15.28-6.73,23-.59,2.22-.09,4.73-.09,10,5.07-4,8.19-6.21,11-8.77,20.67-19,39.09-40,54.49-63.59,28-43,53.08-87.79,77.88-132.71,2.9-5.25,6.06-10.37,8.62-15.78,8.89-18.73,25.33-25.54,44.18-25.28,21.06.29,38.58,9.33,50,28.11,7.76,12.78,11.73,26.75,13.67,41.42.41,3.09.78,6.19,1.46,11.61,5.93-5.18,10.39-8.87,14.63-12.81,13.28-12.34,27.7-23.11,44.55-30,16.18-6.58,32.61-10.65,50.54-5.8,19,5.15,33.85,15,44,32,3.33,5.57,5.16,12.27,11.74,16.7,3.64-5.28,6.86-10.27,10.41-15,8-10.67,15.63-21.6,24.25-31.72,13.23-15.53,30.38-25.53,49-33.53,31.54-13.52,72.62,1.91,87.16,26a315.45,315.45,0,0,1,22.73,44.31c7.75,19.09,13.34,39.05,20,58.57,3.89,11.34,7.56,22.8,12.37,33.75,7.27,16.56,16.8,31.63,32.19,41.89,10-2,15.64-8.78,21.45-15,14.23-15.23,24.81-33,34.13-51.47,14.43-28.64,25.25-58.71,35-89.2,1.22-3.8,2.09-7.72,3.44-11.47,5.44-15,17-21.42,32.81-18.57a47.2,47.2,0,0,1,27.56,15c21.53,23.93,36.17,50.89,37.12,84,.29,10,1.45,19.93,2.56,29.85.33,3,1.85,5.84,2.58,8,6.5,1.28,8.86-2.53,11-5.58,8.4-12,16.83-24,24.47-36.47,9.75-15.9,18.53-32.39,28.12-48.39,9.29-15.48,20.22-29.73,33.78-41.85,10.59-9.47,22.63-13.57,36.81-11.21,17.27,2.88,29.53,11.82,34.72,28.94,3.68,12.13,6.18,24.17,2.54,37.22-4.64,16.66-7.78,33.74-11.19,50.71-1.52,7.59-3.42,15.34-1.34,23.11,6.45.52,8.85-4.16,11.91-7.3,14-14.3,27.53-29,41.52-43.27,10.26-10.46,20.49-21,31.57-30.59a169,169,0,0,1,74.25-37.29,91.35,91.35,0,0,1,47.38,1.37c17.63,5.34,30.41,15.59,37.68,32.92a296.25,296.25,0,0,1,19.36,64.94c3.84,22.49,4.79,45,1.42,67.67-.67,4.49-.1,9.17-.1,15,4.16-1,8-1.38,11.31-2.89,15.75-7.19,31.7-14.07,47-22.19,47.93-25.5,99.19-42.33,150.9-57.69,21.62-6.42,44.16-9.75,66.33-14.22,13.91-2.8,27.78-1.55,41.74.61,13.22,2,24.42,6.4,29.67,19.2,6.83.76,12.83,1.11,18.71,2.14,13.13,2.29,21.86,9.91,24.47,23.07,2.19,11,3.22,22.23,4.78,33.41,5.83,1.29,6-4.13,7.54-7.08,10.64-21,23.65-40.14,40.73-56.46,23.92-22.88,52.4-36.81,85-40.84,37.72-4.67,71.12,7.3,100.15,31.2a128.57,128.57,0,0,1,21.89,23.18c26,35.59,43,74.94,47.36,119.25a173,173,0,0,1-129.45,185c-38.79,10-76.53,8.37-113.38-7.67-18.6-8.09-34.93-19.35-47.51-35.56-1.62-2.09-3.44-4-5.25-6-.42-.45-1.19-.57-3-1.37-1.33,2.64-3.34,5.19-4,8-15.87,73.48-56.89,129.66-118.18,171.81-46.51,32-97.6,54.44-151.16,71.58-56.61,18.11-114.57,30.49-173.31,38.89a1588.87,1588.87,0,0,1-271.09,15.55c-25.91-.74-52.07-.55-77.39-7.52a198.41,198.41,0,0,1-24.38-8.76c-10.68-4.5-14-14.47-14.29-24.53-.29-10.78,2.46-21.73,13.83-26.75,9.7-4.28,19.66-8.64,30-10.75,35.21-7.25,70.49-14.32,106-20,103.24-16.54,206.87-30.67,309.3-52,50.89-10.61,101.32-23,150.35-40.45,20.72-7.39,41.13-15.57,60-27.08,12-7.32,23.22-15.58,32.61-26.18,5-5.6,8.87-11.75,10.31-19.12,8.16-41.82,4.71-83.18-3.79-124.25-8.15-1-12.23,4.19-17.29,7-15.12,8.42-29.93,17.41-45.2,25.55-13,7-27.19,10.74-41.8,13-33.14,5-62.74-9.1-78.86-38.42-4.77-8.69-8-18.24-11.88-27.41-1.26-3-2.35-6-3.26-8.37-5.43-2.08-8.55,1.09-11.93,2.68-13.86,6.53-27.54,13.42-41.41,19.93-18.84,8.83-38.83,14.09-59.22,17.56-27.43,4.66-51.89-8.17-64.62-32.74-8.41-16.25-11.93-33.86-15.07-51.57-2-11.14-3-22.46-4.72-33.64-1.23-7.83-3.06-15.56-4.95-24.93-4.7,2-8.5,2.79-11.39,4.87-16.75,12.09-32.77,25.25-50,36.56-18.91,12.38-38.67,23.51-58.45,34.48-12.87,7.14-27.07,10.94-41.59,13.67-8.71,1.65-17,1.19-25.69-.34-21.19-3.74-34.87-15.39-41.11-35.93-1.53-5-3.17-10-5.2-16.4-6,2.7-11.39,4.81-16.48,7.51a157.57,157.57,0,0,1-45.16,15.55c-37.73,7-71.32-1.24-100.07-27.26a59.5,59.5,0,0,0-5.62-3.94c-2.87,3.65-5.73,7.11-8.39,10.71-5.54,7.51-10.68,15.32-16.5,22.59-36.94,46.2-103.9,50.75-149.56,11.28-9.48-8.2-17.33-18.41-25.29-28.21-9.24-11.37-17.46-23.56-26.7-34.93-7.08-8.71-14.22-17.61-24.41-22.8-8.15,2.24-12.59,8.33-17,14-6.6,8.34-12.59,17.19-18.68,25.93-6.85,9.85-13.47,19.84-20.26,29.73-10.72,15.6-25.35,24.63-44,28.53-29.74,6.2-54.76-4.2-68.8-30.9-5.55-10.56-9.62-21.93-14.09-33-3.21-8-6-16.16-9.46-25.68-3.8,3.29-7.43,5.26-9.37,8.31-8.57,13.46-17.24,26.92-24.74,41-7.2,13.49-12.71,27.88-19.49,41.61-13.67,27.66-46.23,37.87-72.92,23.37-8.55-4.64-14.46-11.64-19.17-19.85a195.72,195.72,0,0,1-20-49.92c-3.57-14.19-6.23-28.61-9.31-42.93-1.25-5.82-2.52-11.63-4.29-19.75-3.58,4.46-6.33,7.07-8.1,10.23-15.28,27.33-30.36,54.78-45.53,82.17-15.6,28.16-34.36,54-57.77,76.15-18.22,17.28-39,30.17-64.24,34.36-27.78,4.61-51.13-3.88-70.23-24.38-1.81-1.94-3.22-4.24-4.91-6.31s-3.43-3.94-5.86-6.72c-3.47,2.5-6.74,4.5-9.59,7-25.38,22-55,35-87.82,40.45-27.33,4.58-53-1-76.86-15a61.36,61.36,0,0,1-24.18-26c-4.44-8.88-8.4-18-13.14-28.25-3.48,2.49-6.88,4.26-9.42,6.86-17.22,17.64-34.81,35-51.22,53.32-27.08,30.32-53,61.65-80.09,92q-30.58,34.29-62.87,67.07c-19.24,19.5-40.23,37.18-65.46,48.64a159.17,159.17,0,0,1-32,10.89c-33,7.1-64.5-6.72-82.23-35.47-10.55-17.11-18-35.63-23.52-55-9.42-32.75-15.13-66.22-19.33-100q-9.86-79.34-19-158.76c-3.24-28.47-5.57-57-8.34-85.55-.32-3.26-.85-6.5-1.34-10.11-2.53,0-4.64-.62-6.1.1-45.62,22.41-94,37.24-142.18,52.86-28.5,9.25-56.8,19.13-85.13,28.88-4.32,1.49-8.35,3.78-12.83,5.85-1.71,13.32,1.95,25.63,3.46,38q11.14,91.24,23.36,182.37c6.76,50.17,14.56,100.2,21.41,150.36,7.31,53.46,14.39,107,20.81,160.53,1.82,15.14,1.78,30.64,1.09,45.91-.44,9.82-3.13,19.65-5.74,29.23-2,7.5-7.77,11.84-15.24,14.52-16.54,5.92-37.27-2.24-42.69-16.19-5.3-13.64-11.79-26.86-16.28-40.74-13.57-41.88-22.86-84.87-31.52-128-18.89-94-37.25-188.16-56-282.2-20.48-102.56-43.1-204.64-68.74-306-12.92-51.08-31.6-100.35-48.85-150-9.83-28.33-19-56.87-24.62-86.39-4-21.12-4.53-42.25,1-63.4,6.11-23.54,20.37-38.65,44.12-43.86a177.07,177.07,0,0,1,33.55-4.47c60-1.4,119.93-2,179.9-3.29q122.93-2.55,245.84-5.66c6.54-.16,13.07-1,18.71-1.53,4.16-5.21,2.73-9.92,2.09-14.34-4.61-31.69-7-63.56-8.48-95.53-1.89-40.72-1.24-81.35,5.23-121.62,3.49-21.66,8.33-43.16,13.82-64.4,6.75-26.15,19.62-49.15,37.36-69.83,28.43-33.15,61-61.41,96.92-86,38.06-26,78.63-47.58,119.69-68.31,39.83-20.12,79.91-39.78,119.5-60.38,38.46-20,75.42-42.6,109.68-69.33,5-3.95,11.52-6.76,14.16-15-2.88-1.31-5.59-3.34-8.51-3.73-9.88-1.33-19.83-2.61-29.79-3-61.32-2.19-122.61-1.69-183.76,4C740.13,197,609.74,230.07,486,288.18c-7.81,3.67-14.8,7.71-20.73,14.84-10.1,12.15-24.86,15.1-40,13.05-18.07-2.43-33.21-9.43-39.49-28.74-6.17-19-2.3-35.74,11-49.94a146.92,146.92,0,0,1,24.3-20.69c14.84-10.1,30-19.82,45.76-28.48,54-29.78,112-49.07,171.68-64.09C716,104.61,793.91,86.72,872.84,73.88,940,63,1007.41,54.88,1075.67,56.2c31.45.61,62.57,3.83,92.88,12.23,14,3.88,27.68,9.48,41,15.43,34,15.15,49.48,43.51,52.7,78.94,2.61,28.64-5.75,55.57-18.59,80.78-4.08,8-11.55,14.58-18.31,20.91-17.63,16.48-37.93,29.28-59,40.94-41.46,23-85,41.41-129.08,58.61-47.78,18.64-95.44,37.57-143.39,55.73C829.14,444.3,774.44,483.05,726,532.35c-21,21.37-31.57,45.5-35.15,74a611.32,611.32,0,0,0-1,143.58c3,27.15,5.83,54.32,8.87,81.46.58,5.18,1.78,10.29,2.86,16.43,5.85.45,11,1.31,16.13,1.15,54.68-1.75,109.29-.46,163.85,3.16,31.26,2.08,62.39,5.31,93,12.14,13,2.9,25.9,6.31,37.74,12.73,14.21,7.7,21,21.8,18.62,38.48-2.54,17.65-12,28.31-28.65,31.55-5.84,1.13-11.92,1.22-17.9,1.39-38,1.05-75.94,2.25-113.92,2.89A1161,1161,0,0,0,744.91,960c-7.79,1-15.49,2.77-24.07,4.34.41,9.91,2.36,18.19,4,26.56,7.11,37.32,13.73,74.7,13.61,112.92a169.31,169.31,0,0,1-7.9,51.16c-3,9.39-7.79,18.35-12.78,26.92-6.15,10.54-28,20-40.59,14.89-7.3-3-12.9-6.59-15.38-14.26-4.71-14.57-9.42-29.14-14.23-43.67-1.82-5.49-3.92-10.88-7.94-15.79,1.36,17.2,2.39,34.45,4.16,51.61,7.71,74.89,15.37,149.79,23.61,224.62,3.57,32.43,7.34,64.92,15.51,96.61,3.14,12.22,7.32,24.21,11.65,36.07,3.93,10.75,10.59,19.85,18.52,28.19s17.28,10.13,27.36,6.58a117.57,117.57,0,0,0,23.19-11.43c21-13.2,39.34-29.67,56.93-47,32.82-32.35,62.11-67.78,90.82-103.74,62.36-78.1,134.16-146.24,216-203.71,8.73-6.13,17.52-12.16,26.29-18.22,11.64-8,24.21-13.94,38.14-16.77,2.61-.52,5.24-1.42,7.85-1.4,26,.26,40.65,8.23,45.91,32C1246.51,1201,1247.41,1205.53,1248.8,1212.22Zm-26.7,9.92c.25-5.17,1-9.84.6-14.39-1.3-14.26-11-22-24.81-18.34a86.89,86.89,0,0,0-25.3,11.34,1056.77,1056.77,0,0,0-248.77,229.41c-27.2,34.6-55.79,68-87.34,98.79-16.25,15.84-33,31.26-52.34,43.15-11.27,6.92-23.2,13.4-35.67,17.58-25.24,8.46-45.88,1.28-61.48-20.37a116.33,116.33,0,0,1-14.38-26.15A364.7,364.7,0,0,1,659,1499.34c-10.88-44.79-15.25-90.6-19.84-136.33-3.33-33.15-6.06-66.35-9.42-99.5-4.9-48.38-10.07-96.73-15.23-145.09-1.34-12.58-2.67-25.19-4.71-37.67-1.4-8.59-4.13-16.88-12.11-22.14-9.17-6-18.46-3.75-23.1,6.21a46,46,0,0,0-4.09,13.27c-1.53,11.87-3.56,23.85-3.34,35.74.57,30,1.69,60,3.65,89.85,2.6,39.89,5.69,79.76,9.5,119.55q6.5,67.63,14.72,135.1c4.81,39.67,10.16,79.3,16.28,118.78a288.4,288.4,0,0,0,19.27,69.14c5.52,13,12.18,25.19,22.08,35.4,12,12.33,26.41,17.36,43.5,15.3a71.61,71.61,0,0,0,31.7-11.42c14.87-10,30.22-19.88,43.16-32.13,23.2-22,45.38-45.08,66.84-68.75,25.95-28.64,50.37-58.66,76.1-87.49,19.51-21.87,39.52-43.35,60.32-64,12.23-12.14,26.34-22.43,39.84-33.24,2.85-2.28,6.77-3.23,10.54-4.94,2,13.75,2.86,26.39,5.9,38.47,8.47,33.58,33.37,53,68,53.88a97.19,97.19,0,0,0,19.86-1.53c38.52-7,69-26.92,92.38-58.15,3.38-4.54,6.73-9.1,11.13-15,3.28,7.2,5.78,12.53,8.15,17.92,4.88,11,10.82,21.38,19.1,30.28,15.35,16.5,34,20.45,54.66,13a84.22,84.22,0,0,0,24.33-13.43,308.91,308.91,0,0,0,33.38-31.42c16.66-18.28,30.06-39,42-60.67q29-52.5,58.44-104.71c2.59-4.62,5.28-9.4,8.89-13.2,7.58-8,21.39-4.38,23.7,6.3,1.82,8.42,2,17.2,3.25,25.76,2.77,18.42,4.79,37,9,55.14,3.79,16.11,9.45,31.91,15.74,47.24,3.19,7.77,8.82,15,14.73,21.07,8,8.23,17.69,8.36,27.28,2.15,8.12-5.25,13.25-12.76,17.24-21.48,8-17.56,16.21-35.06,24.93-52.29a162.16,162.16,0,0,1,27.33-39.24c7.33-7.66,15.07-14.86,25.27-18.72,8.46,7.52,11.72,17,15.27,26.29,5.25,13.67,9.5,27.75,15.2,41.22,3.84,9.11,8.5,18.2,14.47,26,8.82,11.56,21.1,15.44,35.65,11.85,8.71-2.16,16.4-5.87,22.07-12.78q10.11-12.35,19.38-25.39c8.08-11.41,15.28-23.48,23.72-34.61a110.51,110.51,0,0,1,19.26-20.1c14.6-11.45,27.49-11.48,41.64.71,10.52,9.06,19.88,19.64,28.82,30.33,9.82,11.73,18,24.88,28,36.44,8.22,9.5,17.16,18.89,27.39,26,29.33,20.51,65.79,17.49,91.59-7.3,9-8.7,16.65-19,24.12-29.19,8.29-11.26,15.56-23.26,23.53-34.75,2.5-3.62,5.85-6.65,9.67-10.89,2.13,3.73,3.43,5.89,4.61,8.11,1.56,2.94,2.9,6,4.56,8.88,14.44,25,35.9,38.74,64.89,40.22a107.94,107.94,0,0,0,45-7.29,139.68,139.68,0,0,0,62.68-47.87c2-2.66,2.78-7.81,9-5.55-.7,5.19-2,10.43-2,15.67-.1,13.27-1.22,26.8.92,39.76,4.68,28.44,20.2,38.33,48.61,31.8a115,115,0,0,0,29.8-11.14c19.17-10.67,38.07-22,56.2-34.35,18.7-12.74,36.22-27.21,54.51-40.57,16.71-12.22,32.94-8.19,40.13,10.85,4.18,11.08,6,23.14,8.13,34.89,3,16.36,5.08,32.9,8.14,49.26,2,10.52,5.75,20.59,12.19,29.31,9.43,12.78,21.51,19.09,38,16.14a228,228,0,0,0,60.46-20.1c19.14-9.38,38-19.39,57-29,6.38-3.2,13.06-5.84,21-9.36-.48,7.23-1,12.45-1.14,17.69-.71,23.23,7.9,42.9,23.31,59.85,10.55,11.6,23.68,16.62,39.39,15.53,10.8-.74,21.26-2.9,30.8-7.78,14.79-7.58,29.31-15.72,43.68-24.08s28.37-17.44,42.72-25.88c3.12-1.83,7-2.29,10.71-3.43,1.22,3,2.22,4.71,2.69,6.6,7.3,29.81,12.5,60,14.44,90.65,1.39,22-.33,43.89-3.77,65.72-3.3,20.87-12.85,37.85-29.71,50.21-11.24,8.24-22.9,16.32-35.39,22.34a599.76,599.76,0,0,1-58.9,24.66c-54.71,19.5-111.29,32.06-168.11,43.53-96,19.38-193,32.81-289.69,48.22-34.82,5.55-69.4,12.7-104.05,19.35a103.22,103.22,0,0,0-17.14,5.31c-3.6,1.37-8,2.86-8.22,7.64-.25,5,4,6.82,7.69,7.76,11.58,2.91,23.18,6.74,35,7.58,26.57,1.9,53.25,3,79.89,3,75.37.1,150.5-4,225.24-14.2,62.16-8.5,123.45-20.86,183.09-40.58,49.55-16.38,96.91-37.4,139.72-67.77,23.49-16.67,44.75-35.75,62.71-58.37,28.91-36.38,45.85-77.57,51.42-123.81,3.71-30.83,1.82-61.19-3.9-91.45-3.72-19.72-6-39.52-5.18-59.61.48-12,1.26-24,1.5-35.95a96,96,0,0,0-1.25-17.85c-1-5.88-5.34-9.13-11.37-9.19-11-.09-21.31,2.61-29.33,10.48a300.53,300.53,0,0,0-21.64,23.5c-9.3,11.32-18,23.13-26.88,34.81-11.77,15.5-25.81,28.68-41,40.74a66.38,66.38,0,0,1-30.8,13.45c-12.81,2.17-25.31.78-36.74-5.91-12.52-7.32-17.32-19.16-11.57-32.3a95.07,95.07,0,0,1,15.08-23.24c10.51-12.24,23.61-21.8,37.93-29,20.2-10.14,40.89-19.35,61.65-28.3,13.44-5.8,27.44-10.26,41-15.69,2.54-1,4.37-3.83,7.75-6.93-22.59-6.06-43.17-4-63.3.38a801.54,801.54,0,0,0-171.66,58.49c-20.5,9.63-40.72,19.83-61.23,29.43a233.1,233.1,0,0,1-26,10.35c-22.55,7.44-28.41,2.66-25.94-20.39,1.36-12.59,2.82-25.17,3.83-37.79,2.92-36.68-4.11-71.68-19-105.1-7.12-16-20.09-24.8-37.71-25a102.37,102.37,0,0,0-25.62,3c-21.76,5.39-40.8,16.47-57.2,31.52-14.22,13-27.54,27.09-41.12,40.82-14.06,14.21-27.65,28.91-42.07,42.74a133.43,133.43,0,0,1-23.73,18.12c-12.14,7.26-20.54,3-22.28-11.37a109.7,109.7,0,0,1,.26-27.87c2.35-17.13,5.8-34.13,9.06-51.13,2-10.46,4.78-20.77,6.75-31.24,1.79-9.55.27-18.77-6-26.45-8.5-10.42-18.57-10.43-25.77-2.64-9,9.75-18.52,19.27-26.09,30.1-9.9,14.16-18,29.55-27.06,44.32-9.37,15.35-18.71,30.71-28.45,45.81a62.37,62.37,0,0,1-11.61,13.66c-20.17,17.17-42.68,10.07-48.17-15.6a187.65,187.65,0,0,1-4.09-37.65c-.21-29.53-14.41-52.14-34-72.13-10-10.25-14.81-8.79-19.23,4.5-1.26,3.79-2.32,7.64-3.56,11.44-10.56,32.33-22.18,64.3-38.74,94.09a367.34,367.34,0,0,1-28.38,43.37c-5.9,7.78-13.94,14.43-22.18,19.81-14.7,9.59-30.92,8.15-44.3-3.46-6.46-5.6-12.73-12.12-17-19.45a312.54,312.54,0,0,1-20.1-41.16c-6.36-16.07-10.59-33-16.48-49.24-6.11-16.88-12.66-33.64-19.86-50.07a76.42,76.42,0,0,0-21.42-28.58c-15.28-12.56-31.95-15.45-50.28-7A106.8,106.8,0,0,0,1795.8,1186c-10.39,13-19.9,26.68-29.13,40.51-8.13,12.18-15.21,25.06-23,37.45-1.5,2.37-4.32,3.9-7.1,6.31-4-12.26-7.11-23.14-11-33.74-4.4-11.9-10-23.28-18.24-33.11-14.59-17.39-32.68-22.5-53.7-13.65a110.4,110.4,0,0,0-27.27,16.33,324,324,0,0,0-34.53,33.17c-12.42,13.88-23.42,29-35.14,43.53-1.94,2.4-3.34,6.08-8.42,4.8-5.65-23.4-6.81-46.92,2.33-70,9.07-22.87-6.51-48.78-20.85-57.7-8.52-5.3-17.75-7.4-26.4-2.13-5.38,3.28-9.87,8.89-13.27,14.37-7,11.3-13.07,23.21-19.51,34.88-22.84,41.44-46.31,82.5-72.62,121.87a293.91,293.91,0,0,1-59,64.78,118.24,118.24,0,0,1-25.31,15.74c-11.32,5.18-19.55.09-21.91-12.13a71.36,71.36,0,0,1-.75-9.94c-.6-12.21,2.72-23.74,6.1-35.27,5.42-18.53,11.48-36.92,15.79-55.72,2.65-11.54,3-23.69,3.49-35.6a22.45,22.45,0,0,0-6.14-16.48c-13.05-14-37.84-17.22-53.07-5.5a83.2,83.2,0,0,0-19.84,22.06c-8.28,13.6-15.11,28.14-21.82,42.62-8.4,18.12-15.56,36.82-24.22,54.81-5.75,12-12.77,23.36-20,34.51-5.83,9-13.92,16-23,21.84-20.85,13.46-47.87-2.73-46-26.71a95.23,95.23,0,0,1,9.19-34.52c22.76-46.74,52.5-88,94.69-119.4ZM691.3,944.44c11.18-4.91,21.4-3.69,31.08-5.36,42.78-7.35,85.93-10.51,129.28-11.58q63-1.56,125.92-3.2c5.32-.13,10.69,0,16-.59,6.9-.76,12.77-6.56,13.37-12.81s-3.14-10.48-8.13-12.56c-9.78-4.08-19.74-8.08-30-10.51-30.57-7.24-61.84-9.88-93.1-11.58-55.89-3-111.83-5.63-167.83-2a95.94,95.94,0,0,1-14,0c-4.46-.37-8.85-1.5-13.26-2.3-.8-3.57-1.59-6.12-1.92-8.72-3.4-26.43-6.59-52.88-10.09-79.3a792.8,792.8,0,0,1-5.34-147.63c1.31-24,4.9-47.71,12-70.77,5.36-17.47,13.54-33.24,27.29-45.78,6.4-5.83,12.2-12.31,18.35-18.41,37.25-36.92,78.77-67.7,127.28-88.42,13.47-5.76,26.77-12,40.4-17.31,47.73-18.75,95.63-37.06,143.35-55.84,39.07-15.36,77.76-31.6,114.6-51.9a378.55,378.55,0,0,0,57.89-39.07c16.81-13.81,26.58-31.19,30.67-52.19.89-4.58,2.13-9.11,2.68-13.73,3.75-31.38-7-56.22-33.7-73.69-12.38-8.11-26-13.44-40.23-17.29-30.44-8.24-61.6-11.06-93-11.47-64.18-.84-127.71,6.67-190.92,16.73C795,110.72,711.3,130,628.16,151.88c-47.87,12.6-94.09,29.14-138,52C465.78,216.46,442.49,230.66,422,249a88.36,88.36,0,0,0-12.09,13.19c-3.84,5.2-4,11.26-.84,17,8.7,15.94,31.26,17.53,38.35,5.2,4.35-7.55,11.51-10.84,18.79-14.06,23.14-10.24,46.08-21,69.58-30.36,99.59-39.68,202.94-64.2,309.37-76.67,75-8.79,150.21-9.68,225.55-6.84,12.72.49,25.43,1.73,37,7.25A66.67,66.67,0,0,1,1125.57,176c6.42,6.33,6.63,14.54,1.28,21.9a58.39,58.39,0,0,1-12.46,12.79c-21.5,15.72-42.84,31.73-65.1,46.31-34,22.29-70.44,40.48-106.75,58.75C905.65,334.34,868.65,352.7,832,371.7a719.08,719.08,0,0,0-96.85,59.79c-32.88,24.28-62.37,52-87.63,84.28a130.54,130.54,0,0,0-20.73,38.47C615.18,587.88,609.16,622.62,607,658c-3.95,66.1-.12,131.87,10,197.29.9,5.77,3.19,11.68-.85,18.4-3.82.74-8.27,2.09-12.78,2.37-19.95,1.21-39.91,2.65-59.89,3-97.95,1.93-195.9,3.5-293.85,5.32-38,.7-76,2-113.94,2.52-30.54.41-49.69,18.3-49.43,50.24a199.35,199.35,0,0,0,3.2,35.71c6.78,35.45,19.48,69.18,31.37,103.12,13.89,39.59,28,79.11,38.48,119.8,40.56,157.45,72,316.89,103.56,476.31,12.78,64.68,23.89,129.71,40,193.68,5.85,23.22,13,46.14,20.4,68.92,2.63,8.06,7.38,15.59,12.09,22.77a6.75,6.75,0,0,0,12.27-2.49,114.14,114.14,0,0,0,3.05-23.59c.28-36.1-4.67-71.8-9.5-107.44-6.62-48.84-14.76-97.48-21.37-146.32-12.43-91.76-24.22-183.6-36.27-275.41-1.65-12.55-3.53-25.08-4.8-37.67-1.45-14.28.13-17.27,13.06-23.5a210.62,210.62,0,0,1,24.15-9.46c35.33-11.94,70.76-23.55,106.08-35.53,22.69-7.71,45.36-15.55,67.82-23.9,11.83-4.41,23.32-9.82,34.73-15.24a115.85,115.85,0,0,0,17.14-10.21c5.4-3.83,11.34-8.11,9.94-16-1.2-6.79-7.43-8.75-12.92-11.22-11.49-5.15-23.31-4.89-35.29-2.5q-41.14,8.2-82.29,16.45c-40.48,8.11-80.93,16.37-121.45,24.3-11,2.15-22.22,3.93-34.84,1-24.27-64.13-40.37-130.7-56.06-197.36-5.45-23.17-11.79-46.31-13-71.07,4.59-.9,8.38-1.93,12.24-2.35,17.88-2,35.78-3.73,53.66-5.68,42.39-4.64,84.75-9.47,127.14-14,47-5,94.07-10,141.15-14.57,26.52-2.57,53.11-4.4,79.7-6.28,6.52-.46,13.31-1.76,20.77,2.39,1.32,5.55,3.08,11.91,4.33,18.36,4,20.93,7.82,41.91,11.81,62.84a1014.82,1014.82,0,0,0,32.58,127.68c1.57,4.79,4.13,9.26,6.32,14.07,3.11-1,5.17-1.21,6.71-2.23a27.65,27.65,0,0,0,5.9-5.32,55.38,55.38,0,0,0,12.36-29.09c1.81-15.83,3.83-31.94,2.82-47.74-1.56-24.54-5-49-8.78-73.36C701,992.08,696.05,969.34,691.3,944.44Zm-81,27.95c-5.86,0-11.11-.4-16.28.07-32.47,2.91-65,5.81-97.38,9.09-45,4.57-90,9.44-135,14.23-41,4.37-82,8.72-123,13.31-5,.56-9.9,2.53-15.71,4.07,4.16,18.86,7.75,36.42,11.92,53.84,12.56,52.4,25.76,104.63,43.19,155.68,1.44,4.2,3.71,8.11,6,13,12.56-2.08,24.37-3.66,36-6,52.13-10.59,104.21-21.46,156.34-32.1,21.48-4.39,43-9.32,65.08-4.25.42.09,1-.65,2.82-1.85,0-3.62.05-8.11,0-12.59-.39-26-1.14-51.89-1.08-77.84,0-16.75,3.57-33,9.57-48.72,4.75-12.43,14.11-18.75,27-20.7a47.6,47.6,0,0,1,25.42,3.1c5.47,2.21,10.77,4.87,18.56,8.44C619.7,1018.53,616.36,995.8,610.27,972.39ZM3020.94,1428c.08,23.22,3.37,45.47,12.54,66.64,16.71,38.55,46.2,61.94,87.22,68.44,91.74,14.55,183.12-55.19,175.72-162.4-2.92-42.24-20.16-78.6-46.71-110.42-43.28-51.88-106.14-57.39-157.1-13.13C3047,1316.74,3025.77,1368.79,3020.94,1428ZM1195,1277.48c-6.57,7.42-13.83,14.34-19.57,22.36-12.76,17.85-25.4,35.87-36.8,54.6-5.42,8.91-8.14,19.53-11.56,29.56-1,3-.65,7.2,3.36,8.24,2.15.55,5.68-.15,7.15-1.67,6.88-7.17,14-14.33,19.68-22.42C1169.24,1351.23,1190.26,1303.38,1195,1277.48Zm1610.7,112.8c3.27,1.62,6,3.78,9,4.29,10.37,1.78,19.41-1.54,27.67-8a237.42,237.42,0,0,0,47.79-50c1.35-1.89,2.06-4.24,3.39-7.06-20.75,4.28-49,18.94-68.27,35.79C2817.49,1372.17,2808.74,1378.52,2805.71,1390.28Z"/><path class="cls-2" d="M1725.8,648.27c1.46-25.63,2.68-48.91,4.14-72.17,3-47.2,5.61-94.43,9.25-141.58,1.53-19.88,5.21-39.6,7.93-59.39.18-1.31.55-2.6.78-3.92,6.66-37.86,51.69-37.07,69.68-21.55a29.75,29.75,0,0,1,8.27,13.34,136.59,136.59,0,0,1,5.06,25.36c4.12,39.22,2.36,78.55,1.34,117.84-1.18,46-1.16,91.94,2.16,137.85.87,11.94,2.54,23.65,6,34.57,9.23,3.8,17,2.17,24.27-1.27s14.5-6.93,20.89-11.59c11.82-8.62,23.18-17.91,34.44-27.28,11.78-9.79,23.13-20.1,34.83-30,27-22.82,58-37.07,92.44-45a403.78,403.78,0,0,1,188.05.77,210.55,210.55,0,0,1,48.43,18.33c17.76,9.3,28,23.54,32.49,43,3,13.27-.37,25-5,36.87-6.29,16-18,27.81-31.26,38.2-20,15.7-42.46,27.45-65.12,38.78l-19.55,9.75c4.6,7.85,12.13,7.53,18.13,9.56,49.19,16.63,98.69,32.34,147.77,49.29C2450,838.72,2538,871.35,2622.9,911.8c26.42,12.6,52.36,26.36,77.69,41,15.47,9,30,19.83,43.8,31.3,18.35,15.31,30.34,35.21,35.83,58.69,1.06,4.5,2.21,9.23,1.92,13.77-1.83,29-12.28,39.62-37.28,43.5-15,2.34-29.05-.35-42.46-7.53-22.31-12-44.75-23.64-67.19-35.35-125.8-65.63-252.78-128.83-383.92-183.21-47.34-19.63-95.47-37.35-143.2-56-15.66-6.14-31.88-9-48.58-10.62-18.52-1.81-37-4.62-55.32-7.85-8.44-1.49-16.68-4.57-24.72-7.69-16.09-6.24-28.85-16.41-36-32.71-1-2.38-2.65-4.51-4.49-7.59-3.89.92-7.84,1.23-11.26,2.75-17,7.6-33.93,15.46-50.83,23.33-19.38,9-39.29,16.46-60.29,20.78a86.83,86.83,0,0,1-45.36-2.26c-15.26-5-27.31-13.57-34-28.71-2.14-4.87-4.67-9.57-6.91-14.12-5.51-3.61-10.63-1.23-15.52.48-23.23,8.16-46.37,16.6-69.59,24.83-33.24,11.77-66.33,24-99.86,35a241.41,241.41,0,0,1-62.7,11.67c-24.34,1.22-47.73-2.57-70-12.78a99,99,0,0,1-46.27-42.52c-4.56-8.1-8.73-16.42-13.74-25.88-3.51,2.06-6.94,3.53-9.73,5.79-12.41,10.07-24.32,20.78-37,30.46a144.39,144.39,0,0,1-48,24c-19.75,5.7-38.22,2.63-56.42-5.2-16.28-7-29.4-18.16-40.37-31.89-6.63-8.29-12.9-16.88-20.11-26.36-4.13,2-8.44,3.37-12,5.81q-31.46,21.27-62.6,43c-19.7,13.74-40,26.41-61.57,37.07a211.94,211.94,0,0,1-64.63,20c-36.3,5.15-65.61-7.69-86.68-37.5a142.76,142.76,0,0,1-17.42-33.57c-17-47-20-94.91-5.31-143.18,2.88-9.49,7.69-18.38,11.28-27.68,6.85-17.73,34.48-27.92,50.5-24.59,13.88,2.89,24.61,9.09,30.68,22.69a124.34,124.34,0,0,1,11,50.32c.07,8.65-.11,17.33.43,26,.94,14.78,7.94,26.6,19,36.09a36.88,36.88,0,0,0,23.65,9.28c32.87,1,61.79-9.61,86-31.31,13.34-11.93,24.77-26,36.78-39.41,12.91-14.37,25.23-29.28,38.31-43.49,10.84-11.78,22.93-22.3,36.8-30.53,25.46-15.12,60.22-5.84,74,20.35,4.28,8.13,6.75,17.29,9.42,26.17,1.9,6.3,2.75,12.92,4.37,20.85,4.29-2.07,7.93-3.23,10.86-5.35,13-9.36,25.48-19.34,38.6-28.46,17-11.83,34.88-21.88,55.52-26.45,32.29-7.16,63.59,4.44,81.74,32.2,13.56,20.75,23.81,43.13,27.45,68,.49,3.3.75,6.65,1.5,9.88a55.24,55.24,0,0,0,3,9.49c15,34.85,34.62,40.08,65.08,31.7,7.62-2.09,14.87-5.81,22-9.38q67-33.54,133.82-67.42C1710.41,657.37,1717.72,652.84,1725.8,648.27Zm231,72.51,4,14.78c4.78,17.36,16.14,28.81,32.47,35.5a77.33,77.33,0,0,0,17.17,5.17c17.76,2.75,35.55,5.45,53.43,7.14a220.53,220.53,0,0,1,54.39,12.22C2191,821.8,2262.48,851,2333.13,882.37c126.1,56,248.89,118.66,370.91,182.94,4.71,2.48,9.49,4.85,14.13,7.46,7.37,4.16,15.31,4.42,23.32,3.31,10.29-1.42,17.13-8.83,16.28-19.24a67.51,67.51,0,0,0-5.69-21,87.73,87.73,0,0,0-24-31.62c-10.64-9-21.44-18.24-33.4-25.27-25.82-15.17-51.94-30-78.81-43.16-62.87-30.79-128.15-56-193.79-80.15-94.38-34.79-189.94-66.08-286.1-95.52-4.71-1.44-9.73-2.18-14.08-7.11,8-3.3,14.65-6.15,21.4-8.86,29.7-11.92,59.19-24.43,86.59-41A358.89,358.89,0,0,0,2272,673c7-5.77,12.75-13.75,17.15-21.79,7.34-13.4,5.31-25.85-5.64-36.53a92.74,92.74,0,0,0-21-14.9c-16-8.51-33.5-12.9-51.27-16.1-37.62-6.77-75.41-7.76-113.48-4.25-50.47,4.65-96.45,19.55-134,55.25-5.79,5.5-11.93,10.65-18,15.82-10.67,9-21,18.63-32.29,26.79a258.45,258.45,0,0,1-34.07,20.67c-12.64,6.41-26.55,8.39-40.79,7.79-9.79-.41-16.89-4.83-19.35-14.28-3.34-12.84-7-25.83-8.11-39-2.18-26.54-3.49-53.21-3.73-79.84-.35-37.31.86-74.64.9-112,0-23.32-.66-46.64-1.5-69.94a54.53,54.53,0,0,0-3.55-17.44c-2.66-6.89-8.77-9.67-16.12-9.35-6.6.3-11.52,3.59-14.12,9.5a42.3,42.3,0,0,0-2.84,11.55c-2.66,20.48-6,40.91-7.49,61.47-3.54,49.85-6.18,99.76-9.15,149.64-1,17.3-2.26,34.59-2.8,51.91-.32,10.37-4.68,17.79-13.36,23-2.86,1.71-5.75,3.37-8.72,4.87q-75.81,38.28-151.64,76.52c-14.43,7.28-29.65,12.21-45.75,13.44-27.65,2.11-49.46-8.12-64-32.31A103.18,103.18,0,0,1,1454.81,700c-1-5.23-1.66-10.55-2.84-15.74a132.4,132.4,0,0,0-26.69-55.27c-16.5-20.11-36.37-25.43-60.76-15.92a152.45,152.45,0,0,0-28.11,15c-12.23,8.05-23.64,17.33-35.57,25.83-8.13,5.79-16.19,11.87-24.95,16.54-19.36,10.32-31.35,4.59-36.91-17-1.16-4.5-1.59-9.18-2.39-13.78s-1.14-9.33-2.56-13.73c-4-12.56-11.23-22.52-24-27.7-6.65-2.69-13-3.26-18.85,1.41-9.88,7.86-20.44,15.11-29.23,24.08-14.43,14.74-27.62,30.69-41.43,46-11.58,12.88-22.42,26.59-35.13,38.26-30.8,28.26-67.74,41.79-109.52,40.34-30.25-1.06-51.15-17.78-60.81-46.44-4.75-14.11-6.15-28.69-5.28-43.39.64-10.83-.2-21.44-3.42-31.61a58.52,58.52,0,0,0-9.19-17.45c-4.89-6.42-12.49-7.4-19.87-4-6.2,2.9-11.52,7.1-14.36,13.36-4.12,9.07-8.53,18.18-11.09,27.74-7.35,27.43-7.45,55.34-3,83.28a160.66,160.66,0,0,0,14.06,45.67c6.2,12.71,14.1,24.15,25.07,33.27,14,11.68,29.79,17,48.21,14,19.21-3.15,37.92-8,55-17.28,16.36-8.88,32.46-18.37,48.06-28.53,17.86-11.64,34.77-24.72,52.57-36.43,15-9.87,30.63-18.83,46.18-27.85,3.8-2.2,8.37-3.08,12.88-4.67,3.9,5.82,7.09,10.85,10.55,15.69,6.18,8.67,12.12,17.58,18.93,25.74a143,143,0,0,0,18.39,18.27c20.53,17.05,43.29,20.29,66.88,7.48a241,241,0,0,0,36.28-24.59c16.55-13.41,32-28.15,48.1-42.17,3.81-3.32,8.13-6.06,13.72-10.18,2,6,3.42,10.26,4.83,14.48,1.47,4.42,2.84,8.88,4.45,13.25,16.91,46.23,47.62,79.65,113.17,74.49,23.44-1.84,46.11-7.17,68.13-14.88,32.67-11.45,64.86-24.26,97.51-35.78,24.47-8.63,49.26-16.35,74.06-24,6.79-2.09,14-4.28,21.78-1.42,2.72,8.17,4.88,16.55,8.25,24.4,7.93,18.42,22.11,28.43,42.38,27a129.87,129.87,0,0,0,33.07-6.68c16.31-5.68,32-13,47.92-19.92,17.11-7.4,34-15.32,51.21-22.49C1938.36,723.44,1946.42,719.91,1956.76,720.78Z"/><path class="cls-2" d="M1146.45,443.84c-2.91,34-20.65,69.89-65.58,76.51-28.58,4.21-55.3-11.49-65.07-38-10-27.17-.25-58.92,23.68-73.62,21.62-13.28,44.75-19.66,70.38-12.46C1134.73,403.27,1146.5,418.09,1146.45,443.84Zm-73.2,53a70.86,70.86,0,0,0,9.06-1.28c20.39-5.29,40.11-31.23,39.77-52.1-.18-11.44-5.16-18.58-15.84-22.74-20.37-7.92-48.59.49-62.52,18.81-8.24,10.85-11.21,22.71-4.21,35.22C1046.66,487.49,1056.76,496.48,1073.25,496.81Z"/><path class="cls-2" d="M3074.35,1420.88c.71-21.35,6.83-38.71,18.46-53.92,20.92-27.39,49-42.8,83.06-46,50-4.66,86.66,38.12,75.4,87.37-9,39.45-31.94,68.27-68.41,85.69-16.49,7.88-34,11.22-52.38,6.23-11.23-3-21-8.33-29-16.62C3084,1465.6,3076.54,1443.28,3074.35,1420.88Zm77.21,56.71c2.43-.53,9.47-.7,15.23-3.51,31.38-15.29,53.45-38.87,61.36-73.68,1.4-6.15.85-13.31-.78-19.49-6.27-23.76-26.28-37.89-50.66-35.28-34.73,3.73-58,24.15-73.85,53.88-4.41,8.28-5.35,17.88-3.42,27.23,3.45,16.71,11.22,31,24.32,42.34C3130.64,1475,3138.34,1478.09,3151.56,1477.59Z"/><path class="cls-2" d="M2036.48,737.58c-9.3-.59-18.63-.86-27.89-1.88-9-1-17.31-4.38-20.21-13.8-3.24-10.52,0-20.25,8.74-26.67,13.92-10.24,28.27-20,43-29,18.85-11.47,38.94-20.25,60.91-24.19,10-1.79,19.83-2,29.54,1.46,15.74,5.57,22.93,18.57,18.77,34.68-2.38,9.21-7.41,17-13.89,23.95-11.19,11.94-25,19.75-40.15,25.38C2076.36,734.57,2056.61,737,2036.48,737.58Zm-14.35-26.5c42.19,6.55,90.74-9.07,102.69-41.27-3.28-1.44-6.68-4.23-10-4.13a91.2,91.2,0,0,0-21.63,3.14C2071.43,674.93,2038.76,694.43,2022.13,711.08Z"/><g class="cls-3"><path class="cls-2" d="M1233.32,1210.89c5.09-1,8.51-1.34,11.74-2.31,23.87-7.18,45.22.18,65.3,12.33,5,3,9.07,8.73,11.62,14.15,7,14.77,10.14,30.58,6.55,46.83-5,22.45-10.54,44.76-16.09,67.07-2,8.11-4.86,16-7,24.08-.62,2.33-.1,5-.1,10.43,5.27-4.21,8.52-6.5,11.41-9.18,21.47-20,40.61-41.84,56.61-66.6,29.13-45.07,55.16-91.94,80.93-139,3-5.5,6.29-10.86,9-16.53,9.23-19.62,26.32-26.74,45.91-26.47,21.88.3,40.09,9.76,51.95,29.44,8.07,13.38,12.19,28,14.21,43.38.42,3.24.81,6.48,1.52,12.16,6.16-5.43,10.79-9.3,15.19-13.42,13.81-12.92,28.79-24.21,46.3-31.39,16.82-6.89,33.88-11.16,52.52-6.07,19.77,5.39,35.17,15.73,45.7,33.49,3.47,5.83,5.37,12.85,12.21,17.49,3.78-5.53,7.13-10.76,10.81-15.74,8.27-11.17,16.24-22.62,25.2-33.22,13.75-16.27,31.57-26.74,51-35.12,32.77-14.16,75.46,2,90.57,27.18a331.34,331.34,0,0,1,23.62,46.41c8,20,13.86,40.9,20.83,61.34,4,11.87,7.86,23.88,12.86,35.35,7.56,17.34,17.46,33.13,33.44,43.87,10.42-2.09,16.25-9.2,22.3-15.72,14.79-16,25.78-34.53,35.46-53.91,15-30,26.24-61.49,36.37-93.42,1.27-4,2.17-8.09,3.58-12,5.65-15.72,17.67-22.43,34.09-19.45a49,49,0,0,1,28.63,15.73c22.38,25.07,37.59,53.3,38.58,88,.3,10.44,1.5,20.87,2.65,31.26.35,3.13,1.93,6.11,2.69,8.41,6.75,1.34,9.21-2.65,11.42-5.84,8.73-12.56,17.49-25.14,25.43-38.2,10.12-16.66,19.25-33.92,29.22-50.68,9.65-16.22,21-31.14,35.09-43.83,11-9.92,23.52-14.22,38.25-11.74,17.95,3,30.69,12.38,36.08,30.3,3.83,12.71,6.43,25.32,2.65,39-4.83,17.44-8.09,35.34-11.63,53.11-1.59,8-3.56,16.06-1.39,24.21,6.7.54,9.19-4.36,12.37-7.65,14.51-15,28.6-30.37,43.15-45.32,10.66-11,21.28-22,32.8-32A175.11,175.11,0,0,1,2552,1162c16.54-3.74,32.87-3.55,49.23,1.44,18.33,5.59,31.6,16.33,39.16,34.48a311.75,311.75,0,0,1,20.11,68c4,23.56,5,47.14,1.48,70.88-.69,4.7-.1,9.6-.1,15.76,4.33-1.08,8.31-1.45,11.75-3,16.37-7.52,32.94-14.73,48.81-23.24,49.8-26.71,103.06-44.33,156.8-60.42,22.46-6.72,45.89-10.21,68.93-14.89,14.45-2.93,28.87-1.62,43.37.63,13.73,2.14,25.38,6.71,30.82,20.11,7.11.8,13.34,1.17,19.45,2.25,13.64,2.4,22.71,10.38,25.43,24.16,2.28,11.52,3.35,23.28,5,35,6.06,1.36,6.29-4.32,7.84-7.42,11.06-22,24.58-42,42.32-59.13,24.86-24,54.46-38.55,88.33-42.77,39.19-4.89,73.9,7.65,104.06,32.67a134.35,134.35,0,0,1,22.76,24.28c27,37.28,44.68,78.49,49.21,124.9,8.74,89.6-48.17,171.28-134.52,193.75-40.3,10.48-79.52,8.76-117.82-8-19.32-8.48-36.29-20.27-49.36-37.25-1.69-2.19-3.58-4.23-5.46-6.26-.44-.47-1.23-.6-3.08-1.44-1.39,2.77-3.47,5.44-4.11,8.42-16.49,77-59.11,135.8-122.8,180-48.33,33.5-101.42,57-157.08,75-58.82,19-119,31.94-180.08,40.74a1638.57,1638.57,0,0,1-281.7,16.29c-26.92-.79-54.11-.59-80.42-7.88a205.29,205.29,0,0,1-25.32-9.18c-11.11-4.71-14.58-15.15-14.86-25.68-.3-11.3,2.56-22.77,14.37-28,10.08-4.49,20.43-9,31.13-11.27,36.59-7.59,73.25-15,110.13-21,107.28-17.32,215-32.12,321.4-54.5,52.89-11.11,105.29-24.06,156.24-42.36,21.52-7.74,42.73-16.3,62.35-28.36,12.47-7.67,24.13-16.32,33.88-27.42,5.16-5.87,9.23-12.31,10.72-20,8.47-43.79,4.89-87.11-3.94-130.13-8.47-1.08-12.71,4.39-18,7.34-15.72,8.81-31.11,18.22-47,26.75-13.54,7.28-28.26,11.25-43.44,13.56-34.44,5.25-65.19-9.52-81.94-40.24-5-9.1-8.32-19.1-12.35-28.71-1.31-3.11-2.44-6.3-3.38-8.76-5.65-2.18-8.89,1.14-12.41,2.81-14.4,6.84-28.61,14.06-43,20.87-19.58,9.25-40.35,14.75-61.54,18.39-28.5,4.89-53.92-8.55-67.15-34.29-8.73-17-12.39-35.46-15.66-54-2.05-11.67-3.06-23.52-4.9-35.23-1.28-8.2-3.18-16.29-5.14-26.12-4.89,2.06-8.84,2.93-11.84,5.11-17.41,12.67-34.06,26.45-52,38.29-19.64,13-40.18,24.62-60.73,36.11-13.38,7.49-28.13,11.46-43.22,14.33-9.06,1.72-17.66,1.24-26.7-.37-22-3.91-36.23-16.12-42.71-37.62-1.59-5.26-3.3-10.49-5.41-17.18-6.21,2.83-11.83,5-17.12,7.86a162.84,162.84,0,0,1-46.93,16.29c-39.2,7.34-74.11-1.3-104-28.55a62.4,62.4,0,0,0-5.85-4.13c-3,3.82-5.94,7.45-8.71,11.22-5.76,7.86-11.1,16-17.15,23.66-38.38,48.39-108,53.15-155.41,11.81-9.85-8.58-18-19.28-26.28-29.54-9.59-11.91-18.14-24.68-27.74-36.59-7.35-9.12-14.78-18.44-25.36-23.87-8.47,2.34-13.09,8.71-17.72,14.6-6.87,8.74-13.09,18-19.41,27.16-7.12,10.31-14,20.79-21.06,31.14-11.13,16.33-26.34,25.8-45.74,29.88-30.91,6.5-56.91-4.39-71.49-32.36-5.78-11.06-10-23-14.64-34.6-3.35-8.37-6.21-16.93-9.84-26.91-4,3.45-7.72,5.52-9.74,8.71-8.9,14.1-17.91,28.2-25.71,42.93-7.48,14.13-13.2,29.2-20.25,43.58-14.2,29-48,39.67-75.77,24.48-8.89-4.87-15-12.2-19.92-20.79a205.68,205.68,0,0,1-20.83-52.29c-3.71-14.86-6.48-30-9.68-45-1.3-6.09-2.62-12.18-4.45-20.69-3.72,4.68-6.58,7.41-8.42,10.72-15.87,28.63-31.55,57.37-47.31,86.06-16.21,29.49-35.71,56.52-60,79.76-18.93,18.09-40.5,31.6-66.75,36-28.87,4.83-53.13-4.06-73-25.53-1.88-2-3.35-4.45-5.1-6.6s-3.57-4.14-6.1-7c-3.6,2.62-7,4.72-10,7.31-26.37,23-57.12,36.61-91.25,42.37-28.41,4.79-55.08-1-79.87-15.66a64.08,64.08,0,0,1-25.12-27.23c-4.62-9.31-8.74-18.87-13.66-29.59-3.62,2.61-7.15,4.46-9.79,7.19-17.89,18.47-36.17,36.6-53.22,55.84-28.14,31.75-55.1,64.57-83.22,96.34q-31.8,35.91-65.34,70.24c-20,20.43-41.8,38.94-68,50.94a164.15,164.15,0,0,1-33.23,11.4c-34.29,7.44-67-7-85.45-37.15-11-17.91-18.67-37.31-24.44-57.54-9.79-34.3-15.73-69.36-20.09-104.69q-10.24-83.09-19.72-166.27c-3.36-29.81-5.79-59.73-8.67-89.6-.33-3.42-.88-6.81-1.38-10.58-2.64,0-4.84-.66-6.35.09-47.4,23.48-97.72,39-147.74,55.37-29.62,9.68-59,20-88.46,30.25-4.49,1.55-8.68,4-13.33,6.12-1.77,14,2,26.84,3.59,39.77q11.6,95.57,24.27,191c7,52.54,15.13,104.94,22.26,157.48,7.59,56,15,112,21.62,168.12,1.89,15.86,1.85,32.1,1.14,48.09-.47,10.28-3.27,20.58-6,30.61-2.12,7.85-8.07,12.4-15.84,15.21-17.18,6.2-38.73-2.34-44.36-17-5.5-14.28-12.25-28.13-16.92-42.67-14.09-43.86-23.75-88.89-32.75-134-19.62-98.47-38.71-197.06-58.22-295.56-21.28-107.41-44.79-214.33-71.43-320.52C66.12,1155.61,46.71,1104,28.78,1052,18.56,1022.28,9,992.39,3.19,961.47c-4.14-22.11-4.7-44.24,1-66.4,6.36-24.66,21.17-40.48,45.85-45.94a182.73,182.73,0,0,1,34.86-4.68c62.3-1.46,124.63-2.13,186.94-3.44q127.72-2.68,255.45-5.93c6.8-.17,13.59-1.11,19.45-1.6,4.32-5.46,2.83-10.39,2.17-15-4.79-33.19-7.28-66.57-8.82-100.06-2-42.65-1.28-85.2,5.45-127.38,3.62-22.67,8.65-45.19,14.35-67.44,7-27.39,20.39-51.48,38.82-73.14,29.55-34.72,63.36-64.32,100.72-90,39.55-27.22,81.7-49.84,124.36-71.55,41.4-21.07,83-41.67,124.18-63.24,40-21,78.37-44.62,114-72.62,5.25-4.13,12-7.07,14.72-15.71-3-1.38-5.81-3.5-8.84-3.91-10.28-1.39-20.61-2.73-31-3.11-63.72-2.29-127.4-1.77-190.95,4.15-141.16,13.15-276.65,47.82-405.23,108.68-8.11,3.84-15.38,8.08-21.54,15.54-10.49,12.73-25.82,15.81-41.61,13.67-18.78-2.54-34.52-9.88-41-30.1-6.4-19.86-2.38-37.43,11.45-52.3a152.56,152.56,0,0,1,25.25-21.67c15.42-10.58,31.22-20.76,47.55-29.83C476.91,107.23,537.14,87,599.15,71.29c80.57-20.44,161.49-39.18,243.51-52.62C912.42,7.23,982.49-1.23,1053.42.15c32.68.63,65,4,96.51,12.8,14.57,4.07,28.77,9.94,42.61,16.16C1227.83,45,1244,74.69,1247.3,111.8c2.71,30-6,58.19-19.32,84.6-4.24,8.4-12,15.27-19,21.89-18.32,17.26-39.41,30.68-61.27,42.89-43.08,24.08-88.32,43.36-134.13,61.38-49.65,19.52-99.17,39.35-149,58.37-67.31,25.69-124.14,66.28-174.47,117.91-21.82,22.38-32.8,47.65-36.52,77.5a645.94,645.94,0,0,0-1.07,150.38c3.11,28.44,6.07,56.89,9.23,85.32.6,5.42,1.84,10.78,3,17.21,6.08.46,11.44,1.37,16.76,1.2,56.81-1.83,113.56-.49,170.26,3.31,32.49,2.18,64.83,5.56,96.68,12.71,13.54,3,26.91,6.61,39.22,13.33,14.76,8.07,21.84,22.84,19.34,40.31-2.64,18.49-12.42,29.65-29.77,33-6.07,1.19-12.38,1.28-18.6,1.46-39.46,1.1-78.91,2.35-118.38,3a1193,1193,0,0,0-130.47,9.09c-8.11,1-16.1,2.9-25,4.55.43,10.38,2.46,19.05,4.11,27.82,7.39,39.09,14.27,78.23,14.15,118.26a178.78,178.78,0,0,1-8.21,53.59c-3.11,9.83-8.09,19.22-13.28,28.19-6.39,11-29,21-42.18,15.59-7.58-3.12-13.41-6.9-16-14.93q-7.34-22.89-14.79-45.74c-1.88-5.75-4.07-11.39-8.25-16.54,1.42,18,2.49,36.08,4.33,54.06,8,78.43,16,156.88,24.53,235.25,3.71,34,7.63,68,16.11,101.19,3.27,12.79,7.61,25.35,12.11,37.78,4.09,11.25,11,20.79,19.25,29.51s17.95,10.62,28.42,6.9a122,122,0,0,0,24.11-12c21.79-13.82,40.87-31.08,59.15-49.24,34.11-33.87,64.54-71,94.37-108.64q97.2-122.71,224.45-213.36c9.06-6.42,18.19-12.74,27.31-19.08,12.1-8.41,25.16-14.61,39.64-17.56,2.7-.56,5.43-1.5,8.15-1.47,27,.26,42.24,8.62,47.7,33.56C1231,1199.16,1231.87,1203.89,1233.32,1210.89Zm-27.74,10.4c.26-5.42,1.06-10.3.63-15.08-1.36-14.93-11.48-23-25.79-19.21a90,90,0,0,0-26.29,11.88,1101.4,1101.4,0,0,0-258.49,240.27c-28.27,36.24-58,71.24-90.76,103.47-16.89,16.59-34.25,32.74-54.39,45.2-11.72,7.24-24.11,14-37.07,18.41-26.23,8.86-47.68,1.34-63.88-21.34a122,122,0,0,1-14.95-27.39,385.57,385.57,0,0,1-14.14-45.89c-11.3-46.91-15.85-94.89-20.62-142.79-3.45-34.71-6.29-69.49-9.78-104.2-5.09-50.67-10.47-101.32-15.83-152-1.39-13.18-2.77-26.39-4.89-39.46-1.45-9-4.29-17.68-12.58-23.18-9.54-6.33-19.19-3.94-24,6.5a48.53,48.53,0,0,0-4.25,13.9c-1.59,12.43-3.7,25-3.47,37.43.59,31.38,1.76,62.78,3.79,94.1,2.7,41.78,5.91,83.54,9.88,125.22Q545.42,1398,554,1468.66c5,41.55,10.56,83,16.92,124.4,3.82,24.82,10.18,49.16,20,72.41,5.74,13.57,12.66,26.39,23,37.08,12.42,12.91,27.44,18.18,45.2,16a74,74,0,0,0,32.93-12c15.46-10.5,31.41-20.81,44.86-33.65,24.1-23,47.15-47.21,69.45-72,27-30,52.34-61.43,79.08-91.63,20.27-22.9,41.06-45.39,62.67-67,12.72-12.72,27.37-23.49,41.41-34.82,3-2.39,7-3.38,10.95-5.17,2.12,14.41,3,27.64,6.13,40.29,8.79,35.17,34.67,55.51,70.69,56.43a100.57,100.57,0,0,0,20.64-1.6c40-7.34,71.74-28.2,96-60.91,3.51-4.74,7-9.52,11.56-15.75,3.41,7.54,6,13.13,8.48,18.77,5.06,11.56,11.23,22.39,19.84,31.71,16,17.29,35.3,21.43,56.8,13.62a87.6,87.6,0,0,0,25.28-14.07,323,323,0,0,0,34.69-32.91c17.3-19.15,31.23-40.84,43.65-63.54,20-36.66,40.39-73.16,60.72-109.67,2.7-4.84,5.49-9.85,9.24-13.83,7.88-8.35,22.23-4.58,24.63,6.6,1.89,8.82,2,18,3.37,27,2.89,19.3,5,38.8,9.4,57.75,3.94,16.87,9.82,33.42,16.36,49.48,3.31,8.13,9.16,15.66,15.3,22.06,8.28,8.63,18.38,8.76,28.35,2.26,8.44-5.5,13.77-13.37,17.91-22.5,8.34-18.39,16.85-36.72,25.91-54.76a169.61,169.61,0,0,1,28.4-41.1c7.62-8,15.66-15.57,26.26-19.61,8.78,7.87,12.18,17.86,15.86,27.54,5.46,14.32,9.88,29.06,15.79,43.17,4,9.54,8.85,19.06,15,27.26,9.16,12.11,21.92,16.17,37,12.41,9-2.26,17-6.14,22.93-13.38q10.51-12.93,20.14-26.6c8.39-12,15.87-24.59,24.65-36.24a114.79,114.79,0,0,1,20-21c15.17-12,28.57-12,43.27.74,10.93,9.49,20.65,20.57,30,31.76,10.21,12.29,18.69,26.06,29.09,38.17,8.54,9.94,17.83,19.78,28.45,27.26,30.48,21.48,68.37,18.32,95.18-7.65,9.4-9.1,17.29-19.93,25.06-30.57,8.61-11.79,16.16-24.36,24.45-36.4,2.6-3.78,6.08-7,10-11.4,2.21,3.91,3.56,6.17,4.79,8.49,1.62,3.08,3,6.3,4.74,9.31,15,26.16,37.3,40.57,67.42,42.12a111.55,111.55,0,0,0,46.8-7.63,145.28,145.28,0,0,0,65.14-50.15c2-2.77,2.89-8.17,9.34-5.81-.73,5.45-2,10.93-2.08,16.42-.1,13.89-1.26,28.07,1,41.64,4.87,29.79,21,40.14,50.52,33.3a118.38,118.38,0,0,0,31-11.66c19.93-11.18,39.56-23,58.4-36,19.44-13.35,37.64-28.49,56.65-42.49,17.36-12.8,34.23-8.58,41.69,11.37,4.35,11.6,6.2,24.23,8.45,36.53,3.14,17.14,5.28,34.47,8.46,51.6,2.05,11,6,21.57,12.67,30.7,9.8,13.38,22.35,20,39.51,16.9a235.74,235.74,0,0,0,62.83-21c19.89-9.82,39.45-20.31,59.25-30.32,6.64-3.35,13.57-6.12,21.82-9.81-.5,7.57-1,13-1.19,18.53-.74,24.33,8.21,44.93,24.22,62.68,11,12.16,24.6,17.41,40.93,16.27,11.22-.78,22.09-3,32-8.15,15.37-7.93,30.46-16.47,45.39-25.22s29.49-18.26,44.4-27.1c3.23-1.92,7.3-2.4,11.12-3.59,1.27,3.09,2.31,4.93,2.8,6.9,7.59,31.23,13,62.84,15,95,1.45,23.07-.34,46-3.92,68.83-3.42,21.86-13.35,39.64-30.87,52.59-11.68,8.62-23.79,17.09-36.77,23.4a620.6,620.6,0,0,1-61.2,25.82c-56.85,20.43-115.65,33.58-174.69,45.59-99.76,20.3-200.56,34.37-301,50.51-36.19,5.81-72.12,13.29-108.12,20.26a107.37,107.37,0,0,0-17.81,5.56c-3.75,1.44-8.28,3-8.54,8-.27,5.19,4.12,7.15,8,8.13,12,3,24.09,7.07,36.33,8,27.61,2,55.33,3.12,83,3.15,78.31.1,156.38-4.17,234-14.88,64.59-8.9,128.28-21.84,190.25-42.5,51.49-17.15,100.71-39.17,145.18-71,24.42-17.47,46.5-37.45,65.17-61.14,30-38.1,47.65-81.24,53.43-129.67,3.86-32.29,1.89-64.08-4.05-95.78-3.86-20.66-6.23-41.39-5.38-62.43.5-12.55,1.31-25.1,1.55-37.65a100.82,100.82,0,0,0-1.29-18.7c-1.05-6.16-5.56-9.57-11.82-9.62-11.44-.1-22.15,2.73-30.47,11a311.74,311.74,0,0,0-22.49,24.61c-9.66,11.86-18.71,24.23-27.93,36.46-12.24,16.23-26.83,30-42.62,42.67a68.7,68.7,0,0,1-32,14.09c-13.32,2.27-26.31.81-38.18-6.19-13-7.67-18-20.08-12-33.83a99.61,99.61,0,0,1,15.67-24.34c10.92-12.82,24.53-22.83,39.41-30.36,21-10.62,42.49-20.27,64.06-29.65,14-6.07,28.52-10.74,42.65-16.43,2.64-1.07,4.54-4,8-7.25-23.47-6.36-44.86-4.17-65.77.39a828.29,828.29,0,0,0-178.38,61.27c-21.3,10.08-42.32,20.76-63.63,30.82a242.49,242.49,0,0,1-27,10.84c-23.43,7.79-29.52,2.79-26.95-21.37,1.4-13.18,2.93-26.36,4-39.57,3-38.41-4.28-75.07-19.72-110.08-7.4-16.78-20.87-26-39.18-26.2a105.29,105.29,0,0,0-26.63,3.1c-22.61,5.65-42.38,17.25-59.43,33-14.78,13.67-28.62,28.38-42.73,42.76-14.61,14.88-28.73,30.27-43.71,44.76a139,139,0,0,1-24.66,19c-12.62,7.6-21.34,3.13-23.15-11.9a115.46,115.46,0,0,1,.26-29.19c2.45-17.95,6-35.74,9.42-53.55,2.09-11,5-21.76,7-32.72,1.87-10,.29-19.66-6.22-27.7-8.83-10.92-19.29-10.92-26.78-2.77-9.37,10.21-19.25,20.19-27.11,31.53-10.29,14.83-18.74,30.94-28.12,46.42-9.73,16.07-19.44,32.16-29.57,48a65,65,0,0,1-12.06,14.3c-20.95,18-44.34,10.54-50.05-16.34a197.9,197.9,0,0,1-4.25-39.43c-.22-30.93-15-54.61-35.37-75.55-10.44-10.73-15.38-9.2-20,4.71-1.31,4-2.41,8-3.7,12-11,33.86-23.05,67.35-40.26,98.54a385.38,385.38,0,0,1-29.49,45.43c-6.13,8.14-14.49,15.11-23.05,20.74-15.27,10-32.13,8.54-46-3.61-6.71-5.87-13.23-12.7-17.62-20.38a329.24,329.24,0,0,1-20.89-43.1c-6.61-16.83-11-34.54-17.12-51.58-6.35-17.68-13.16-35.23-20.64-52.45a80,80,0,0,0-22.25-29.92c-15.88-13.16-33.21-16.18-52.26-7.37a111.33,111.33,0,0,0-40.8,31.67c-10.8,13.58-20.68,28-30.27,42.44-8.44,12.75-15.8,26.24-23.93,39.21-1.56,2.48-4.49,4.09-7.38,6.61-4.12-12.83-7.38-24.23-11.45-35.33-4.58-12.47-10.39-24.38-19-34.68-15.15-18.22-34-23.56-55.79-14.29a114,114,0,0,0-28.34,17.1,337.3,337.3,0,0,0-35.88,34.74c-12.91,14.53-24.33,30.4-36.51,45.59-2,2.51-3.48,6.37-8.76,5-5.86-24.5-7.07-49.13,2.43-73.29,9.42-24-6.77-51.09-21.67-60.43-8.85-5.55-18.44-7.75-27.43-2.23-5.59,3.44-10.25,9.31-13.8,15-7.3,11.84-13.57,24.31-20.26,36.53-23.74,43.4-48.13,86.41-75.46,127.64a306.87,306.87,0,0,1-61.35,67.85,123.16,123.16,0,0,1-26.29,16.49c-11.76,5.42-20.32.09-22.77-12.71a76.64,76.64,0,0,1-.78-10.42c-.62-12.78,2.82-24.85,6.33-36.93,5.65-19.41,11.94-38.67,16.42-58.35,2.75-12.09,3.12-24.82,3.63-37.29a23.7,23.7,0,0,0-6.38-17.26c-13.57-14.62-39.33-18-55.15-5.76a86.68,86.68,0,0,0-20.62,23.1c-8.61,14.24-15.7,29.47-22.67,44.64-8.73,19-16.17,38.56-25.17,57.41-6,12.51-13.27,24.46-20.78,36.14-6,9.42-14.46,16.71-23.93,22.87-21.67,14.1-49.74-2.86-47.76-28a100.55,100.55,0,0,1,9.56-36.16c23.65-49,54.55-92.21,98.4-125.06ZM654,930.44c11.62-5.15,22.25-3.87,32.3-5.61,44.46-7.7,89.3-11,134.34-12.13q65.42-1.63,130.84-3.35c5.54-.14,11.11,0,16.6-.62,7.17-.8,13.27-6.87,13.89-13.42s-3.27-11-8.45-13.16c-10.15-4.27-20.51-8.46-31.18-11-31.77-7.58-64.26-10.35-96.74-12.13-58.08-3.19-116.21-5.89-174.4-2.1a97.89,97.89,0,0,1-14.53.06c-4.63-.38-9.19-1.57-13.77-2.41-.83-3.74-1.65-6.41-2-9.13-3.53-27.68-6.85-55.39-10.48-83.05a836.86,836.86,0,0,1-5.55-154.62c1.36-25.14,5.09-50,12.45-74.13,5.57-18.3,14.07-34.81,28.36-47.95,6.64-6.11,12.67-12.89,19.06-19.28,38.71-38.66,81.86-70.9,132.26-92.61,14-6,27.82-12.51,42-18.12,49.59-19.64,99.37-38.82,149-58.48,40.6-16.1,80.81-33.1,119.09-54.36a393.79,393.79,0,0,0,60.15-40.92c17.46-14.46,27.62-32.67,31.87-54.66.92-4.8,2.21-9.55,2.79-14.38,3.89-32.87-7.32-58.89-35-77.18-12.87-8.49-27-14.08-41.81-18.11-31.62-8.63-64-11.58-96.61-12-66.7-.88-132.71,7-198.4,17.52-88.23,14.15-175.2,34.34-261.59,57.26-49.75,13.2-97.78,30.52-143.45,54.41-25.28,13.23-49.48,28.1-70.77,47.33a91,91,0,0,0-12.57,13.81c-4,5.45-4.14,11.79-.88,17.82,9.05,16.69,32.49,18.35,39.86,5.44,4.51-7.91,11.95-11.35,19.52-14.72,24.05-10.73,47.89-22,72.3-31.8,103.49-41.56,210.88-67.24,321.47-80.3,78-9.21,156.09-10.14,234.37-7.16,13.23.5,26.43,1.8,38.46,7.59a69.19,69.19,0,0,1,18.55,12.87c6.67,6.63,6.89,15.22,1.33,22.94A60.91,60.91,0,0,1,1093.66,162c-22.34,16.46-44.52,33.23-67.66,48.5-35.37,23.35-73.19,42.4-110.92,61.54-38.33,19.44-76.78,38.67-114.88,58.56A746.71,746.71,0,0,0,699.56,393.2c-34.16,25.44-64.8,54.5-91,88.28A136.78,136.78,0,0,0,587,521.76c-12,35.24-18.3,71.62-20.5,108.66-4.11,69.23-.12,138.11,10.41,206.63.92,6,3.31,12.23-.89,19.27-4,.77-8.6,2.19-13.28,2.48-20.74,1.27-41.48,2.77-62.23,3.19-101.78,2-203.57,3.66-305.35,5.56-39.47.74-78.92,2.12-118.39,2.65-31.74.42-51.63,19.17-51.37,52.62a210.83,210.83,0,0,0,3.32,37.4c7,37.12,20.24,72.45,32.61,108,14.42,41.47,29.09,82.86,40,125.48,42.15,164.91,74.87,331.89,107.61,498.86,13.28,67.74,24.83,135.85,41.59,202.85,6.09,24.31,13.49,48.33,21.2,72.18,2.74,8.44,7.68,16.33,12.56,23.84a7,7,0,0,0,12.76-2.6,120.07,120.07,0,0,0,3.17-24.71c.29-37.8-4.86-75.2-9.88-112.52-6.87-51.16-15.34-102.09-22.21-153.25-12.91-96.1-25.16-192.3-37.69-288.45-1.71-13.15-3.66-26.27-5-39.45-1.5-15,.14-18.09,13.57-24.61a219.61,219.61,0,0,1,25.1-9.92c36.71-12.5,73.53-24.66,110.22-37.21,23.59-8.07,47.14-16.28,70.48-25,12.29-4.61,24.23-10.28,36.09-16A120,120,0,0,0,498.67,1247c5.61-4,11.78-8.49,10.33-16.72-1.25-7.12-7.72-9.17-13.43-11.76-11.94-5.4-24.22-5.12-36.67-2.61q-42.75,8.6-85.5,17.22c-42.07,8.5-84.1,17.15-126.2,25.45-11.45,2.26-23.1,4.12-36.21,1-25.22-67.17-42-136.89-58.25-206.7-5.67-24.27-12.26-48.51-13.52-74.44,4.77-.94,8.71-2,12.72-2.46,18.57-2.08,37.18-3.9,55.76-5.95,44-4.86,88.06-9.92,132.11-14.65,48.87-5.26,97.75-10.48,146.67-15.26,27.56-2.69,55.19-4.61,82.81-6.58,6.78-.48,13.84-1.84,21.59,2.5,1.37,5.82,3.2,12.47,4.5,19.24,4.19,21.91,8.12,43.88,12.27,65.81a1071.21,1071.21,0,0,0,33.85,133.73c1.64,5,4.3,9.69,6.58,14.73,3.23-1,5.37-1.27,7-2.34a28.51,28.51,0,0,0,6.14-5.57A58.26,58.26,0,0,0,674,1131.23c1.88-16.59,4-33.45,2.93-50-1.63-25.71-5.21-51.35-9.12-76.84C664.14,980.34,659,956.52,654,930.44Zm-84.2,29.27c-6.08,0-11.54-.41-16.91.07-33.74,3.05-67.49,6.09-101.19,9.53-46.78,4.78-93.51,9.88-140.26,14.9-42.62,4.57-85.25,9.13-127.84,13.94-5.23.59-10.29,2.65-16.32,4.26,4.31,19.75,8,38.15,12.38,56.39,13.05,54.88,26.77,109.58,44.88,163,1.49,4.4,3.86,8.5,6.24,13.65,13.05-2.17,25.32-3.82,37.43-6.3,54.18-11.09,108.29-22.47,162.46-33.62,22.32-4.59,44.64-9.75,67.63-4.45.43.1,1.06-.68,2.92-1.94,0-3.79.06-8.49,0-13.18-.4-27.17-1.18-54.35-1.12-81.53,0-17.54,3.71-34.59,9.94-51,4.94-13,14.67-19.64,28.09-21.68a49.06,49.06,0,0,1,26.4,3.25c5.7,2.31,11.2,5.1,19.29,8.84C579.61,1008,576.15,984.23,569.81,959.71Zm2505,477.22c.09,24.32,3.5,47.63,13,69.8,17.36,40.38,48,64.87,90.62,71.68,95.33,15.24,190.29-57.8,182.6-170.09-3-44.24-20.95-82.32-48.54-115.65-45-54.33-110.29-60.1-163.24-13.75C3101.9,1320.37,3079.81,1374.88,3074.78,1436.93ZM1177.43,1279.24c-6.83,7.77-14.38,15-20.33,23.42-13.27,18.7-26.4,37.57-38.24,57.19-5.64,9.34-8.47,20.46-12,31-1.06,3.13-.67,7.54,3.49,8.63,2.24.58,5.91-.15,7.43-1.75,7.15-7.51,14.51-15,20.45-23.48C1150.65,1356.48,1172.49,1306.37,1177.43,1279.24Zm1673.7,118.15c3.41,1.69,6.22,3.95,9.33,4.49,10.79,1.86,20.18-1.61,28.76-8.33a247.85,247.85,0,0,0,49.66-52.33c1.4-2,2.14-4.45,3.52-7.39-21.56,4.47-50.91,19.83-71,37.48C2863.38,1378.42,2854.28,1385.07,2851.13,1397.39Z"/><path class="cls-2" d="M1729,620.25c1.52-26.85,2.79-51.22,4.3-75.59,3.07-49.43,5.84-98.9,9.61-148.28,1.59-20.82,5.42-41.47,8.25-62.2.19-1.38.57-2.73.81-4.1,6.92-39.66,53.7-38.83,72.41-22.58,4,3.44,7,8.86,8.58,14A142.67,142.67,0,0,1,1838.2,348c4.29,41.07,2.45,82.26,1.4,123.41-1.23,48.17-1.21,96.29,2.24,144.38.9,12.5,2.64,24.77,6.25,36.2,9.58,4,17.63,2.28,25.22-1.33s15.06-7.26,21.7-12.14c12.29-9,24.09-18.76,35.79-28.56,12.24-10.26,24-21.06,36.19-31.42,28-23.91,60.29-38.83,96.06-47.16a416.36,416.36,0,0,1,195.4.81,217.25,217.25,0,0,1,50.33,19.2c18.45,9.73,29.11,24.65,33.76,45.06,3.17,13.9-.39,26.24-5.21,38.62-6.53,16.8-18.69,29.12-32.48,40-20.83,16.44-44.13,28.75-67.67,40.61-6.72,3.39-13.44,6.76-20.32,10.21,4.79,8.22,12.61,7.9,18.85,10,51.11,17.41,102.55,33.87,153.54,51.63,92.24,32.12,183.72,66.3,271.92,108.67,27.45,13.19,54.41,27.6,80.73,43C2758,948.6,2773.12,960,2787.41,972c19.07,16,31.54,36.88,37.24,61.46,1.1,4.72,2.29,9.67,2,14.43-1.9,30.4-12.76,41.49-38.73,45.56-15.59,2.44-30.19-.37-44.13-7.89-23.18-12.51-46.5-24.76-69.81-37C2543.25,979.8,2411.3,913.61,2275,856.65c-49.19-20.56-99.21-39.12-148.81-58.7-16.26-6.43-33.12-9.43-50.47-11.13-19.25-1.89-38.43-4.84-57.49-8.22-8.76-1.55-17.33-4.78-25.68-8.05-16.72-6.54-30-17.18-37.37-34.25-1.08-2.5-2.76-4.73-4.67-7.95-4,.95-8.15,1.28-11.69,2.87-17.7,8-35.27,16.19-52.83,24.44-20.13,9.45-40.82,17.24-62.64,21.77a89.69,89.69,0,0,1-47.14-2.38c-15.85-5.22-28.38-14.2-35.29-30.07-2.23-5.1-4.86-10-7.18-14.78-5.73-3.78-11-1.29-16.13.5-24.15,8.55-48.19,17.39-72.31,26-34.55,12.34-68.94,25.18-103.78,36.61a248.69,248.69,0,0,1-65.15,12.22c-25.29,1.28-49.59-2.69-72.77-13.38a103.21,103.21,0,0,1-48.07-44.54c-4.74-8.48-9.08-17.19-14.28-27.1-3.65,2.16-7.21,3.7-10.11,6.07-12.9,10.54-25.27,21.76-38.48,31.89a149.49,149.49,0,0,1-49.82,25.09c-20.52,6-39.71,2.75-58.62-5.44-16.92-7.34-30.55-19-42-33.4-6.89-8.69-13.4-17.68-20.89-27.62-4.3,2-8.77,3.53-12.51,6.09q-32.69,22.27-65.05,45c-20.47,14.39-41.57,27.65-64,38.82a219.11,219.11,0,0,1-67.17,20.92c-37.71,5.38-68.17-8.05-90.07-39.28a150.06,150.06,0,0,1-18.1-35.16c-17.66-49.26-20.73-99.41-5.51-150,3-9.95,8-19.26,11.71-29,7.12-18.58,35.84-29.25,52.48-25.76,14.42,3,25.57,9.51,31.88,23.76a130.88,130.88,0,0,1,11.45,52.7c.07,9.07-.12,18.15.45,27.19,1,15.47,8.25,27.85,19.78,37.79A38.09,38.09,0,0,0,951.34,700c34.16,1,64.2-10.07,89.38-32.79,13.85-12.5,25.73-27.27,38.21-41.28,13.42-15,26.22-30.66,39.81-45.54C1130,568,1142.57,557,1157,548.37c26.46-15.83,62.57-6.12,76.92,21.31,4.46,8.51,7,18.11,9.8,27.41,2,6.6,2.86,13.53,4.54,21.84,4.46-2.17,8.23-3.38,11.28-5.6,13.47-9.81,26.48-20.26,40.11-29.81,17.68-12.39,36.25-22.92,57.7-27.71,33.54-7.5,66.07,4.65,84.92,33.73,14.1,21.74,24.75,45.17,28.54,71.24.5,3.46.77,7,1.55,10.35a58.37,58.37,0,0,0,3.17,9.94c15.63,36.49,36,42,67.62,33.2,7.92-2.19,15.46-6.09,22.87-9.82q69.6-35.15,139-70.62C1713,629.78,1720.59,625,1729,620.25Zm240,75.94,4.21,15.48c5,18.19,16.77,30.18,33.74,37.18a79.44,79.44,0,0,0,17.84,5.41c18.45,2.88,36.94,5.71,55.52,7.48a227.93,227.93,0,0,1,56.51,12.8c75.57,27.45,149.86,58.05,223.26,90.89,131.05,58.62,258.64,124.28,385.42,191.6,4.9,2.6,9.87,5.08,14.69,7.82,7.66,4.35,15.91,4.62,24.23,3.46,10.69-1.49,17.8-9.25,16.91-20.15a70.78,70.78,0,0,0-5.9-22,91.85,91.85,0,0,0-24.93-33.12c-11.06-9.46-22.28-19.1-34.71-26.47-26.83-15.88-54-31.41-81.89-45.2-65.33-32.25-133.16-58.6-201.37-83.94-98.07-36.44-197.37-69.21-297.3-100.05-4.89-1.51-10.1-2.28-14.62-7.44,8.27-3.46,15.22-6.45,22.23-9.28,30.87-12.49,61.51-25.58,90-43a372.42,372.42,0,0,0,43.77-31.62c7.26-6,13.25-14.4,17.82-22.81,7.62-14,5.52-27.08-5.87-38.26a95.8,95.8,0,0,0-21.85-15.61c-16.63-8.91-34.81-13.51-53.27-16.86-39.09-7.09-78.35-8.13-117.92-4.45C2063,553,2015.26,568.6,1976.2,606c-6,5.76-12.4,11.15-18.73,16.57-11.09,9.48-21.8,19.51-33.56,28.06a268.57,268.57,0,0,1-35.4,21.65c-13.13,6.71-27.59,8.79-42.39,8.16-10.17-.44-17.55-5.06-20.1-14.95-3.47-13.45-7.31-27.06-8.43-40.82-2.27-27.79-3.63-55.72-3.88-83.61-.36-39.08.89-78.18.94-117.27,0-24.41-.69-48.84-1.56-73.25a57.59,57.59,0,0,0-3.69-18.26c-2.76-7.22-9.11-10.13-16.75-9.79-6.86.31-12,3.76-14.67,9.95a44.65,44.65,0,0,0-3,12.1c-2.77,21.44-6.27,42.84-7.78,64.38-3.68,52.2-6.43,104.48-9.51,156.72-1.07,18.12-2.36,36.23-2.92,54.36-.33,10.86-4.86,18.64-13.88,24.07-3,1.78-6,3.52-9.06,5.09q-78.78,40.1-157.57,80.15c-15,7.63-30.81,12.79-47.54,14.07-28.74,2.22-51.4-8.5-66.48-33.83a108.56,108.56,0,0,1-12.89-35.16c-1.07-5.48-1.73-11-3-16.48A139.05,139.05,0,0,0,1416.71,600c-17.15-21.06-37.8-26.63-63.14-16.67a157.63,157.63,0,0,0-29.21,15.72c-12.71,8.43-24.56,18.15-37,27.05-8.45,6.07-16.82,12.43-25.93,17.33-20.12,10.8-32.57,4.8-38.35-17.77-1.21-4.71-1.65-9.62-2.48-14.43s-1.19-9.78-2.66-14.38c-4.21-13.15-11.68-23.59-25-29-6.91-2.82-13.49-3.41-19.59,1.47-10.27,8.24-21.24,15.84-30.37,25.23-15,15.44-28.71,32.14-43.06,48.22-12,13.49-23.3,27.85-36.5,40.07-32,29.61-70.39,43.78-113.8,42.25-31.44-1.1-53.15-18.62-63.19-48.63-4.94-14.78-6.39-30.05-5.49-45.45.66-11.34-.2-22.45-3.55-33.1a61.52,61.52,0,0,0-9.55-18.28c-5.08-6.72-13-7.75-20.65-4.14-6.44,3-12,7.44-14.92,14-4.28,9.49-8.86,19-11.52,29-7.64,28.73-7.74,58-3.14,87.22a169.27,169.27,0,0,0,14.6,47.84c6.45,13.31,14.66,25.29,26.06,34.84,14.58,12.23,30.95,17.82,50.1,14.66,20-3.3,39.39-8.38,57.18-18.11,17-9.3,33.74-19.23,50-29.88,18.55-12.19,36.12-25.89,54.63-38.15,15.59-10.34,31.82-19.72,48-29.17,3.95-2.31,8.7-3.22,13.4-4.89,4,6.1,7.36,11.36,11,16.43,6.43,9.09,12.6,18.41,19.68,27a150.16,150.16,0,0,0,19.1,19.14c21.34,17.85,45,21.24,69.5,7.83a249.88,249.88,0,0,0,37.7-25.76c17.2-14,33.29-29.47,50-44.16,4-3.48,8.45-6.35,14.26-10.66,2.09,6.32,3.55,10.74,5,15.16,1.53,4.63,3,9.3,4.62,13.88,17.57,48.42,49.48,83.42,117.6,78,24.35-1.93,47.91-7.51,70.79-15.59,34-12,67.4-25.41,101.33-37.47,25.42-9,51.19-17.13,77-25.14,7-2.19,14.57-4.48,22.63-1.49,2.83,8.56,5.06,17.33,8.57,25.56,8.24,19.3,23,29.78,44,28.24a134.79,134.79,0,0,0,34.37-7c16.94-6,33.29-13.66,49.79-20.86,17.78-7.76,35.33-16.05,53.2-23.56C1949.85,699,1958.23,695.28,1969,696.19Z"/><path class="cls-2" d="M1127,406.14c-3,35.57-21.46,73.19-68.14,80.13-29.71,4.41-57.46-12-67.62-39.78-10.42-28.46-.26-61.72,24.6-77.11,22.47-13.91,46.51-20.59,73.13-13.05C1114.79,363.64,1127,379.17,1127,406.14Zm-76.06,55.47a73.29,73.29,0,0,0,9.41-1.33c21.19-5.54,41.68-32.71,41.33-54.57-.19-12-5.37-19.46-16.46-23.81-21.16-8.3-50.5.5-65,19.69-8.56,11.36-11.65,23.79-4.37,36.89C1023.27,451.86,1033.77,461.27,1050.91,461.61Z"/><path class="cls-2" d="M3130.28,1429.43c.74-22.35,7.1-40.54,19.18-56.47,21.75-28.68,50.89-44.82,86.31-48.15,52-4.88,90.06,39.94,78.35,91.51-9.38,41.32-33.19,71.5-71.08,89.75-17.13,8.25-35.31,11.75-54.43,6.53-11.67-3.19-21.85-8.73-30.18-17.42C3140.3,1476.27,3132.56,1452.9,3130.28,1429.43Zm80.24,59.39c2.52-.54,9.83-.73,15.81-3.66,32.62-16,55.55-40.72,63.77-77.17,1.45-6.45.88-14-.81-20.41-6.52-24.89-27.31-39.69-52.64-36.95-36.09,3.89-60.27,25.29-76.74,56.43-4.58,8.67-5.56,18.72-3.56,28.51,3.59,17.51,11.66,32.51,25.28,44.35C3188.77,1486.13,3196.78,1489.35,3210.52,1488.82Z"/><path class="cls-2" d="M2051.81,713.79c-9.66-.63-19.36-.9-29-2-9.36-1-18-4.58-21-14.45-3.36-11,0-21.21,9.09-27.93,14.46-10.73,29.37-20.95,44.71-30.36,19.58-12,40.46-21.21,63.29-25.33,10.41-1.88,20.6-2.08,30.7,1.52,16.35,5.84,23.83,19.46,19.5,36.33-2.48,9.64-7.7,17.84-14.43,25.08-11.63,12.5-26,20.69-41.73,26.58C2093.25,710.63,2072.73,713.2,2051.81,713.79ZM2036.91,686c43.84,6.87,94.29-9.49,106.7-43.22-3.41-1.51-6.94-4.43-10.38-4.32a93.77,93.77,0,0,0-22.48,3.28C2088.13,648.17,2054.18,668.59,2036.91,686Z"/></g></g></g></svg>